<svg width="93" height="34" viewBox="0 0 93 34" fill="none" xmlns="http://www.w3.org/2000/svg">
<path d="M2.68117 24.18C2.16117 24.18 1.74117 24.0533 1.42117 23.8C1.10117 23.5333 0.894505 23.1933 0.801172 22.78L1.98117 22.14C2.02117 22.3133 2.08784 22.4533 2.18117 22.56C2.28784 22.6533 2.40784 22.7 2.54117 22.7C2.67451 22.7 2.78784 22.6533 2.88117 22.56C2.97451 22.4533 3.06117 22.3067 3.14117 22.12L8.14117 10.24H8.82117L14.6812 24.02H12.9412L11.1012 19.6H5.90117L4.48117 23C4.33451 23.36 4.08784 23.6467 3.74117 23.86C3.39451 24.0733 3.04117 24.18 2.68117 24.18ZM10.4212 18.12L8.50117 13.04L8.46117 12.74L8.44117 13.04L6.50117 18.12H10.4212ZM20.3193 24.2C19.6526 24.2 19.0193 24.16 18.4193 24.08C18.1526 24.0533 17.8526 24.0067 17.5193 23.94C17.186 23.86 16.946 23.7933 16.7993 23.74V9.46H18.4393V14.62C18.8126 14.3 19.226 14.06 19.6793 13.9C20.146 13.74 20.626 13.66 21.1193 13.66C21.9726 13.66 22.726 13.8867 23.3793 14.34C24.046 14.7933 24.5593 15.42 24.9193 16.22C25.2793 17.02 25.4593 17.92 25.4593 18.92C25.4593 19.8933 25.2793 20.78 24.9193 21.58C24.5593 22.3667 23.9926 23 23.2193 23.48C22.4593 23.96 21.4926 24.2 20.3193 24.2ZM20.2993 22.7C21.5526 22.7 22.4526 22.3533 22.9993 21.66C23.546 20.9667 23.8193 20.06 23.8193 18.94C23.8193 18.1533 23.6926 17.4733 23.4393 16.9C23.1993 16.3267 22.866 15.8933 22.4393 15.6C22.026 15.2933 21.566 15.14 21.0593 15.14C20.4993 15.14 19.9393 15.34 19.3793 15.74C18.8193 16.1533 18.506 16.72 18.4393 17.44V22.58L19.2193 22.66C19.486 22.6867 19.846 22.7 20.2993 22.7ZM31.9759 24.2C31.0292 24.2 30.1759 23.9733 29.4159 23.52C28.6692 23.0667 28.0825 22.4467 27.6559 21.66C27.2292 20.86 27.0159 19.96 27.0159 18.96C27.0159 17.96 27.2292 17.06 27.6559 16.26C28.0959 15.4467 28.6892 14.8133 29.4359 14.36C30.1959 13.8933 31.0492 13.66 31.9959 13.66C32.9425 13.66 33.7892 13.8867 34.5359 14.34C35.2959 14.7933 35.8892 15.4267 36.3159 16.24C36.7425 17.04 36.9559 17.94 36.9559 18.94C36.9559 19.94 36.7425 20.84 36.3159 21.64C35.8892 22.44 35.2959 23.0667 34.5359 23.52C33.7759 23.9733 32.9225 24.2 31.9759 24.2ZM31.9959 22.72C32.9959 22.72 33.7959 22.3733 34.3959 21.68C35.0092 20.9867 35.3159 20.0733 35.3159 18.94C35.3159 17.7933 35.0092 16.8733 34.3959 16.18C33.7959 15.4867 32.9959 15.14 31.9959 15.14C31.3425 15.14 30.7625 15.3 30.2559 15.62C29.7492 15.94 29.3559 16.3867 29.0759 16.96C28.7959 17.5333 28.6559 18.1933 28.6559 18.94C28.6559 20.0733 28.9625 20.9867 29.5759 21.68C30.1892 22.3733 30.9959 22.72 31.9959 22.72ZM45.6654 22.78C45.3854 23.22 44.9454 23.56 44.3454 23.8C43.7454 24.04 43.1254 24.16 42.4854 24.16C41.4721 24.16 40.6521 23.9067 40.0254 23.4C39.3987 22.88 39.0721 22.1133 39.0454 21.1V17.02C39.0454 15.98 38.7654 15.22 38.2054 14.74L39.3054 13.72C39.6387 13.9067 39.9454 14.24 40.2254 14.72C40.5187 15.2 40.6721 15.7133 40.6854 16.26V20.58C40.6854 21.26 40.8321 21.78 41.1254 22.14C41.4187 22.5 41.9054 22.68 42.5854 22.68C43.1854 22.68 43.6921 22.54 44.1054 22.26C44.5187 21.98 44.9721 21.5133 45.4654 20.86L45.4854 14H47.1254V22.14C47.1254 22.3267 47.1654 22.4733 47.2454 22.58C47.3387 22.6733 47.4721 22.72 47.6454 22.72C47.8721 22.72 48.0521 22.6067 48.1854 22.38L49.3054 23.12C49.1321 23.4533 48.8787 23.72 48.5454 23.92C48.2254 24.1067 47.8787 24.2 47.5054 24.2C47.0121 24.2 46.5854 24.06 46.2254 23.78C45.8787 23.4867 45.6921 23.1467 45.6654 22.76V22.78ZM53.5023 24.2C52.5689 24.2 51.8623 23.92 51.3823 23.36C50.9156 22.7867 50.6823 21.9933 50.6823 20.98V11.42H52.3223V14H55.3823V15.48H52.3223V20.98C52.3223 21.46 52.4223 21.8667 52.6223 22.2C52.8223 22.52 53.1156 22.68 53.5023 22.68C53.8889 22.68 54.2156 22.5733 54.4823 22.36C54.7489 22.1333 54.9556 21.8333 55.1023 21.46L56.3823 22.28C55.7423 23.56 54.7823 24.2 53.5023 24.2ZM65.0049 24.24C64.5649 24.24 64.1649 24.1 63.8049 23.82C63.4449 23.54 63.2116 23.2067 63.1049 22.82L64.5049 22.24C64.6116 22.44 64.6916 22.5667 64.7449 22.62C64.7983 22.6733 64.8849 22.7 65.0049 22.7C65.0983 22.7 65.1649 22.68 65.2049 22.64C65.2583 22.6 65.3049 22.5333 65.3449 22.44L67.9249 10.28H69.4249L73.2649 20.8L73.5249 21.72L73.7849 20.8L77.6649 10.28H79.1849L82.0049 24.02H80.3649L78.2049 13.26L78.1849 12.94L78.1249 13.26L74.2449 24.02H72.8049L68.9849 13.38L68.9249 12.94L68.8649 13.38L66.9049 22.68C66.8116 23.1067 66.5849 23.4733 66.2249 23.78C65.8649 24.0867 65.4583 24.24 65.0049 24.24ZM88.1026 24.2C87.1159 24.2 86.2692 23.9867 85.5626 23.56C84.8692 23.12 84.3426 22.5333 83.9826 21.8C83.6226 21.0533 83.4426 20.22 83.4426 19.3C83.4426 18.3933 83.6159 17.5133 83.9626 16.66C84.3092 15.8067 84.8292 15.1 85.5226 14.54C86.2159 13.98 87.0692 13.7 88.0826 13.7C88.7492 13.7 89.3692 13.8333 89.9426 14.1C90.5159 14.3533 90.9692 14.7267 91.3026 15.22C91.6492 15.7 91.8226 16.26 91.8226 16.9C91.8226 17.9267 91.4026 18.7333 90.5626 19.32C89.7226 19.9067 88.6292 20.1867 87.2826 20.16L85.2026 20.12C85.3492 20.9467 85.6692 21.5867 86.1626 22.04C86.6692 22.48 87.3359 22.7 88.1626 22.7C89.2426 22.7 90.2692 22.34 91.2426 21.62L92.1426 22.76C90.8759 23.72 89.5292 24.2 88.1026 24.2ZM87.2826 18.72C88.1759 18.72 88.8826 18.5667 89.4026 18.26C89.9226 17.9533 90.1826 17.4933 90.1826 16.88C90.1826 16.3333 89.9826 15.9133 89.5826 15.62C89.1959 15.3267 88.7292 15.18 88.1826 15.18C87.5692 15.18 87.0359 15.3667 86.5826 15.74C86.1292 16.1 85.7826 16.5533 85.5426 17.1C85.3026 17.6467 85.1626 18.1867 85.1226 18.72H87.2826Z" fill="#F8F8F8"/>
</svg>
