<svg width="80" height="34" viewBox="0 0 80 34" fill="none" xmlns="http://www.w3.org/2000/svg">
<path d="M3.51063 11.84C3.16396 11.84 2.92396 11.9 2.79063 12.02C2.64396 12.14 2.55729 12.36 2.53063 12.68L1.03063 12.66C1.03063 11.86 1.27729 11.2467 1.77063 10.82C2.17063 10.46 2.75729 10.28 3.53063 10.28H7.95063C8.76396 10.28 9.47063 10.4733 10.0706 10.86C10.6706 11.2333 11.1306 11.7533 11.4506 12.42C11.7706 13.0733 11.9306 13.8067 11.9306 14.62C11.9306 16.0733 11.5106 17.1733 10.6706 17.92C9.83063 18.6533 8.73063 19.02 7.37063 19.02C6.90396 19.02 6.40396 18.9533 5.87063 18.82V17.36C6.43063 17.4533 6.90396 17.5 7.29063 17.5C9.29063 17.5 10.2906 16.5467 10.2906 14.64C10.2906 13.6933 10.0573 12.9867 9.59063 12.52C9.12396 12.04 8.48396 11.8 7.67063 11.8H5.15063V24.02H3.51063V11.84ZM17.9661 24.2C17.0194 24.2 16.1661 23.9733 15.4061 23.52C14.6594 23.0667 14.0728 22.4467 13.6461 21.66C13.2194 20.86 13.0061 19.96 13.0061 18.96C13.0061 17.96 13.2194 17.06 13.6461 16.26C14.0861 15.4467 14.6794 14.8133 15.4261 14.36C16.1861 13.8933 17.0394 13.66 17.9861 13.66C18.9328 13.66 19.7794 13.8867 20.5261 14.34C21.2861 14.7933 21.8794 15.4267 22.3061 16.24C22.7328 17.04 22.9461 17.94 22.9461 18.94C22.9461 19.94 22.7328 20.84 22.3061 21.64C21.8794 22.44 21.2861 23.0667 20.5261 23.52C19.7661 23.9733 18.9128 24.2 17.9661 24.2ZM17.9861 22.72C18.9861 22.72 19.7861 22.3733 20.3861 21.68C20.9994 20.9867 21.3061 20.0733 21.3061 18.94C21.3061 17.7933 20.9994 16.8733 20.3861 16.18C19.7861 15.4867 18.9861 15.14 17.9861 15.14C17.3328 15.14 16.7528 15.3 16.2461 15.62C15.7394 15.94 15.3461 16.3867 15.0661 16.96C14.7861 17.5333 14.6461 18.1933 14.6461 18.94C14.6461 20.0733 14.9528 20.9867 15.5661 21.68C16.1794 22.3733 16.9861 22.72 17.9861 22.72ZM29.2956 13.66C29.6823 13.66 30.1423 13.7267 30.6756 13.86L30.6356 15.44C30.1023 15.2933 29.669 15.22 29.3356 15.22C28.709 15.22 28.2223 15.3667 27.8756 15.66C27.4756 15.98 27.129 16.4067 26.8356 16.94V24.02H25.1956V16.94C25.1956 15.9 24.9156 15.14 24.3556 14.66L25.4556 13.64C25.6556 13.76 25.8556 13.94 26.0556 14.18C26.269 14.42 26.4423 14.6933 26.5756 15C26.869 14.6267 27.169 14.34 27.4756 14.14C27.9823 13.82 28.589 13.66 29.2956 13.66ZM35.2152 24.2C34.2818 24.2 33.5752 23.92 33.0952 23.36C32.6285 22.7867 32.3952 21.9933 32.3952 20.98V11.42H34.0352V14H37.0952V15.48H34.0352V20.98C34.0352 21.46 34.1352 21.8667 34.3352 22.2C34.5352 22.52 34.8285 22.68 35.2152 22.68C35.6018 22.68 35.9285 22.5733 36.1952 22.36C36.4618 22.1333 36.6685 21.8333 36.8152 21.46L38.0952 22.28C37.4552 23.56 36.4952 24.2 35.2152 24.2ZM40.017 13.66C40.017 12.14 40.297 11.0067 40.857 10.26C41.4304 9.51333 42.2904 9.14 43.437 9.14C44.357 9.14 45.0904 9.42667 45.637 10C46.1837 10.5733 46.457 11.3467 46.457 12.32C46.457 13.04 46.3037 13.68 45.997 14.24C45.6904 14.8 45.257 15.24 44.697 15.56C44.137 15.8667 43.497 16.02 42.777 16.02C42.577 16.02 42.4237 16.0133 42.317 16L41.657 15.94V18.62H44.537V20.1H41.657V29.04H40.017V13.66ZM42.317 14.52C43.0904 14.52 43.697 14.3267 44.137 13.94C44.5904 13.54 44.817 12.9933 44.817 12.3C44.817 11.7667 44.6904 11.3533 44.437 11.06C44.1837 10.7667 43.837 10.62 43.397 10.62C42.8104 10.62 42.3704 10.9 42.077 11.46C41.797 12.02 41.657 12.8867 41.657 14.06V14.52H42.317ZM51.8138 24.2C50.8671 24.2 50.0138 23.9733 49.2538 23.52C48.5071 23.0667 47.9204 22.4467 47.4938 21.66C47.0671 20.86 46.8538 19.96 46.8538 18.96C46.8538 17.96 47.0671 17.06 47.4938 16.26C47.9338 15.4467 48.5271 14.8133 49.2738 14.36C50.0338 13.8933 50.8871 13.66 51.8338 13.66C52.7804 13.66 53.6271 13.8867 54.3738 14.34C55.1338 14.7933 55.7271 15.4267 56.1538 16.24C56.5804 17.04 56.7938 17.94 56.7938 18.94C56.7938 19.94 56.5804 20.84 56.1538 21.64C55.7271 22.44 55.1338 23.0667 54.3738 23.52C53.6138 23.9733 52.7604 24.2 51.8138 24.2ZM51.8338 22.72C52.8338 22.72 53.6338 22.3733 54.2338 21.68C54.8471 20.9867 55.1538 20.0733 55.1538 18.94C55.1538 17.7933 54.8471 16.8733 54.2338 16.18C53.6338 15.4867 52.8338 15.14 51.8338 15.14C51.1804 15.14 50.6004 15.3 50.0938 15.62C49.5871 15.94 49.1938 16.3867 48.9138 16.96C48.6338 17.5333 48.4938 18.1933 48.4938 18.94C48.4938 20.0733 48.8004 20.9867 49.4138 21.68C50.0271 22.3733 50.8338 22.72 51.8338 22.72ZM60.6386 22.22C60.6386 22.3667 60.6853 22.4933 60.7786 22.6C60.8719 22.6933 60.9919 22.74 61.1386 22.74C61.3519 22.74 61.5186 22.62 61.6386 22.38L62.8186 23.12C62.6319 23.4667 62.3853 23.74 62.0786 23.94C61.7853 24.1267 61.4386 24.22 61.0386 24.22C60.4119 24.22 59.9119 24.04 59.5386 23.68C59.1786 23.3067 58.9986 22.8 58.9986 22.16V9.46H60.6386V22.22ZM66.1269 22.22C66.1269 22.3667 66.1735 22.4933 66.2669 22.6C66.3602 22.6933 66.4802 22.74 66.6269 22.74C66.8402 22.74 67.0069 22.62 67.1269 22.38L68.3069 23.12C68.1202 23.4667 67.8735 23.74 67.5669 23.94C67.2735 24.1267 66.9269 24.22 66.5269 24.22C65.9002 24.22 65.4002 24.04 65.0269 23.68C64.6669 23.3067 64.4869 22.8 64.4869 22.16V13.98H66.1269V22.22ZM65.2869 12.04C65.0202 12.04 64.7802 11.9333 64.5669 11.72C64.3535 11.5067 64.2469 11.2667 64.2469 11C64.2469 10.72 64.3535 10.4733 64.5669 10.26C64.7802 10.0467 65.0202 9.94 65.2869 9.94C65.5669 9.94 65.8135 10.0467 66.0269 10.26C66.2535 10.4733 66.3669 10.72 66.3669 11C66.3669 11.2667 66.2535 11.5067 66.0269 11.72C65.8135 11.9333 65.5669 12.04 65.2869 12.04ZM73.8645 24.2C72.9179 24.2 72.0645 23.9733 71.3045 23.52C70.5579 23.0667 69.9712 22.4467 69.5445 21.66C69.1179 20.86 68.9045 19.96 68.9045 18.96C68.9045 17.96 69.1179 17.06 69.5445 16.26C69.9845 15.4467 70.5779 14.8133 71.3245 14.36C72.0845 13.8933 72.9379 13.66 73.8845 13.66C74.8312 13.66 75.6779 13.8867 76.4245 14.34C77.1845 14.7933 77.7779 15.4267 78.2045 16.24C78.6312 17.04 78.8445 17.94 78.8445 18.94C78.8445 19.94 78.6312 20.84 78.2045 21.64C77.7779 22.44 77.1845 23.0667 76.4245 23.52C75.6645 23.9733 74.8112 24.2 73.8645 24.2ZM73.8845 22.72C74.8845 22.72 75.6845 22.3733 76.2845 21.68C76.8979 20.9867 77.2045 20.0733 77.2045 18.94C77.2045 17.7933 76.8979 16.8733 76.2845 16.18C75.6845 15.4867 74.8845 15.14 73.8845 15.14C73.2312 15.14 72.6512 15.3 72.1445 15.62C71.6379 15.94 71.2445 16.3867 70.9645 16.96C70.6845 17.5333 70.5445 18.1933 70.5445 18.94C70.5445 20.0733 70.8512 20.9867 71.4645 21.68C72.0779 22.3733 72.8845 22.72 73.8845 22.72Z" fill="#F8F8F8"/>
</svg>
