<svg width="180" height="34" viewBox="0 0 180 34" fill="none" xmlns="http://www.w3.org/2000/svg">
<circle cx="23" cy="17" r="9" fill="#FAB2E0"/>
<path d="M0 17C0 19.7614 2.23858 22 5 22C7.76142 22 10 19.7614 10 17C10 14.2386 7.76142 12 5 12C2.23858 12 0 14.2386 0 17Z" fill="#FAB2E0"/>
<circle cx="9" cy="9" r="9" transform="matrix(-1 0 0 1 166 8)" fill="#FAB2E0"/>
<path d="M180 17C180 19.7614 177.761 22 175 22C172.239 22 170 19.7614 170 17C170 14.2386 172.239 12 175 12C177.761 12 180 14.2386 180 17Z" fill="#FAB2E0"/>
<path d="M53.5106 11.84C53.164 11.84 52.924 11.9 52.7906 12.02C52.644 12.14 52.5573 12.36 52.5306 12.68L51.0306 12.66C51.0306 11.86 51.2773 11.2467 51.7706 10.82C52.1706 10.46 52.7573 10.28 53.5306 10.28H57.9506C58.764 10.28 59.4706 10.4733 60.0706 10.86C60.6706 11.2333 61.1306 11.7533 61.4506 12.42C61.7706 13.0733 61.9306 13.8067 61.9306 14.62C61.9306 16.0733 61.5106 17.1733 60.6706 17.92C59.8306 18.6533 58.7306 19.02 57.3706 19.02C56.904 19.02 56.404 18.9533 55.8706 18.82V17.36C56.4306 17.4533 56.904 17.5 57.2906 17.5C59.2906 17.5 60.2906 16.5467 60.2906 14.64C60.2906 13.6933 60.0573 12.9867 59.5906 12.52C59.124 12.04 58.484 11.8 57.6706 11.8H55.1506V24.02H53.5106V11.84ZM67.9661 24.2C67.0194 24.2 66.1661 23.9733 65.4061 23.52C64.6594 23.0667 64.0728 22.4467 63.6461 21.66C63.2194 20.86 63.0061 19.96 63.0061 18.96C63.0061 17.96 63.2194 17.06 63.6461 16.26C64.0861 15.4467 64.6794 14.8133 65.4261 14.36C66.1861 13.8933 67.0394 13.66 67.9861 13.66C68.9328 13.66 69.7794 13.8867 70.5261 14.34C71.2861 14.7933 71.8794 15.4267 72.3061 16.24C72.7328 17.04 72.9461 17.94 72.9461 18.94C72.9461 19.94 72.7328 20.84 72.3061 21.64C71.8794 22.44 71.2861 23.0667 70.5261 23.52C69.7661 23.9733 68.9128 24.2 67.9661 24.2ZM67.9861 22.72C68.9861 22.72 69.7861 22.3733 70.3861 21.68C70.9994 20.9867 71.3061 20.0733 71.3061 18.94C71.3061 17.7933 70.9994 16.8733 70.3861 16.18C69.7861 15.4867 68.9861 15.14 67.9861 15.14C67.3328 15.14 66.7528 15.3 66.2461 15.62C65.7394 15.94 65.3461 16.3867 65.0661 16.96C64.7861 17.5333 64.6461 18.1933 64.6461 18.94C64.6461 20.0733 64.9528 20.9867 65.5661 21.68C66.1794 22.3733 66.9861 22.72 67.9861 22.72ZM79.2956 13.66C79.6823 13.66 80.1423 13.7267 80.6756 13.86L80.6356 15.44C80.1023 15.2933 79.669 15.22 79.3356 15.22C78.709 15.22 78.2223 15.3667 77.8756 15.66C77.4756 15.98 77.129 16.4067 76.8356 16.94V24.02H75.1956V16.94C75.1956 15.9 74.9156 15.14 74.3556 14.66L75.4556 13.64C75.6556 13.76 75.8556 13.94 76.0556 14.18C76.269 14.42 76.4423 14.6933 76.5756 15C76.869 14.6267 77.169 14.34 77.4756 14.14C77.9823 13.82 78.589 13.66 79.2956 13.66ZM85.2152 24.2C84.2818 24.2 83.5752 23.92 83.0952 23.36C82.6285 22.7867 82.3952 21.9933 82.3952 20.98V11.42H84.0352V14H87.0952V15.48H84.0352V20.98C84.0352 21.46 84.1352 21.8667 84.3352 22.2C84.5352 22.52 84.8285 22.68 85.2152 22.68C85.6018 22.68 85.9285 22.5733 86.1952 22.36C86.4618 22.1333 86.6685 21.8333 86.8152 21.46L88.0952 22.28C87.4552 23.56 86.4952 24.2 85.2152 24.2ZM90.017 13.66C90.017 12.14 90.297 11.0067 90.857 10.26C91.4304 9.51333 92.2904 9.14 93.437 9.14C94.357 9.14 95.0904 9.42667 95.637 10C96.1837 10.5733 96.457 11.3467 96.457 12.32C96.457 13.04 96.3037 13.68 95.997 14.24C95.6904 14.8 95.257 15.24 94.697 15.56C94.137 15.8667 93.497 16.02 92.777 16.02C92.577 16.02 92.4237 16.0133 92.317 16L91.657 15.94V18.62H94.537V20.1H91.657V29.04H90.017V13.66ZM92.317 14.52C93.0904 14.52 93.697 14.3267 94.137 13.94C94.5904 13.54 94.817 12.9933 94.817 12.3C94.817 11.7667 94.6904 11.3533 94.437 11.06C94.1837 10.7667 93.837 10.62 93.397 10.62C92.8104 10.62 92.3704 10.9 92.077 11.46C91.797 12.02 91.657 12.8867 91.657 14.06V14.52H92.317ZM101.814 24.2C100.867 24.2 100.014 23.9733 99.2538 23.52C98.5071 23.0667 97.9204 22.4467 97.4938 21.66C97.0671 20.86 96.8538 19.96 96.8538 18.96C96.8538 17.96 97.0671 17.06 97.4938 16.26C97.9338 15.4467 98.5271 14.8133 99.2738 14.36C100.034 13.8933 100.887 13.66 101.834 13.66C102.78 13.66 103.627 13.8867 104.374 14.34C105.134 14.7933 105.727 15.4267 106.154 16.24C106.58 17.04 106.794 17.94 106.794 18.94C106.794 19.94 106.58 20.84 106.154 21.64C105.727 22.44 105.134 23.0667 104.374 23.52C103.614 23.9733 102.76 24.2 101.814 24.2ZM101.834 22.72C102.834 22.72 103.634 22.3733 104.234 21.68C104.847 20.9867 105.154 20.0733 105.154 18.94C105.154 17.7933 104.847 16.8733 104.234 16.18C103.634 15.4867 102.834 15.14 101.834 15.14C101.18 15.14 100.6 15.3 100.094 15.62C99.5871 15.94 99.1938 16.3867 98.9138 16.96C98.6338 17.5333 98.4938 18.1933 98.4938 18.94C98.4938 20.0733 98.8004 20.9867 99.4138 21.68C100.027 22.3733 100.834 22.72 101.834 22.72ZM110.639 22.22C110.639 22.3667 110.685 22.4933 110.779 22.6C110.872 22.6933 110.992 22.74 111.139 22.74C111.352 22.74 111.519 22.62 111.639 22.38L112.819 23.12C112.632 23.4667 112.385 23.74 112.079 23.94C111.785 24.1267 111.439 24.22 111.039 24.22C110.412 24.22 109.912 24.04 109.539 23.68C109.179 23.3067 108.999 22.8 108.999 22.16V9.46H110.639V22.22ZM116.127 22.22C116.127 22.3667 116.174 22.4933 116.267 22.6C116.36 22.6933 116.48 22.74 116.627 22.74C116.84 22.74 117.007 22.62 117.127 22.38L118.307 23.12C118.12 23.4667 117.874 23.74 117.567 23.94C117.274 24.1267 116.927 24.22 116.527 24.22C115.9 24.22 115.4 24.04 115.027 23.68C114.667 23.3067 114.487 22.8 114.487 22.16V13.98H116.127V22.22ZM115.287 12.04C115.02 12.04 114.78 11.9333 114.567 11.72C114.354 11.5067 114.247 11.2667 114.247 11C114.247 10.72 114.354 10.4733 114.567 10.26C114.78 10.0467 115.02 9.94 115.287 9.94C115.567 9.94 115.814 10.0467 116.027 10.26C116.254 10.4733 116.367 10.72 116.367 11C116.367 11.2667 116.254 11.5067 116.027 11.72C115.814 11.9333 115.567 12.04 115.287 12.04ZM123.865 24.2C122.918 24.2 122.065 23.9733 121.305 23.52C120.558 23.0667 119.971 22.4467 119.545 21.66C119.118 20.86 118.905 19.96 118.905 18.96C118.905 17.96 119.118 17.06 119.545 16.26C119.985 15.4467 120.578 14.8133 121.325 14.36C122.085 13.8933 122.938 13.66 123.885 13.66C124.831 13.66 125.678 13.8867 126.425 14.34C127.185 14.7933 127.778 15.4267 128.205 16.24C128.631 17.04 128.845 17.94 128.845 18.94C128.845 19.94 128.631 20.84 128.205 21.64C127.778 22.44 127.185 23.0667 126.425 23.52C125.665 23.9733 124.811 24.2 123.865 24.2ZM123.885 22.72C124.885 22.72 125.685 22.3733 126.285 21.68C126.898 20.9867 127.205 20.0733 127.205 18.94C127.205 17.7933 126.898 16.8733 126.285 16.18C125.685 15.4867 124.885 15.14 123.885 15.14C123.231 15.14 122.651 15.3 122.145 15.62C121.638 15.94 121.245 16.3867 120.965 16.96C120.685 17.5333 120.545 18.1933 120.545 18.94C120.545 20.0733 120.851 20.9867 121.465 21.68C122.078 22.3733 122.885 22.72 123.885 22.72Z" fill="#FAB2E0"/>
</svg>
