<svg width="180" height="34" viewBox="0 0 180 34" fill="none" xmlns="http://www.w3.org/2000/svg">
<circle cx="23" cy="17" r="9" fill="#FAB2E0"/>
<path d="M0 17C0 19.7614 2.23858 22 5 22C7.76142 22 10 19.7614 10 17C10 14.2386 7.76142 12 5 12C2.23858 12 0 14.2386 0 17Z" fill="#FAB2E0"/>
<circle cx="9" cy="9" r="9" transform="matrix(-1 0 0 1 166 8)" fill="#FAB2E0"/>
<path d="M180 17C180 19.7614 177.761 22 175 22C172.239 22 170 19.7614 170 17C170 14.2386 172.239 12 175 12C177.761 12 180 14.2386 180 17Z" fill="#FAB2E0"/>
<path d="M46.6812 24.18C46.1612 24.18 45.7412 24.0533 45.4212 23.8C45.1012 23.5333 44.8945 23.1933 44.8012 22.78L45.9812 22.14C46.0212 22.3133 46.0878 22.4533 46.1812 22.56C46.2878 22.6533 46.4078 22.7 46.5412 22.7C46.6745 22.7 46.7878 22.6533 46.8812 22.56C46.9745 22.4533 47.0612 22.3067 47.1412 22.12L52.1412 10.24H52.8212L58.6812 24.02H56.9412L55.1012 19.6H49.9012L48.4812 23C48.3345 23.36 48.0878 23.6467 47.7412 23.86C47.3945 24.0733 47.0412 24.18 46.6812 24.18ZM54.4212 18.12L52.5012 13.04L52.4612 12.74L52.4412 13.04L50.5012 18.12H54.4212ZM64.3193 24.2C63.6526 24.2 63.0193 24.16 62.4193 24.08C62.1526 24.0533 61.8526 24.0067 61.5193 23.94C61.186 23.86 60.946 23.7933 60.7993 23.74V9.46H62.4393V14.62C62.8126 14.3 63.226 14.06 63.6793 13.9C64.146 13.74 64.626 13.66 65.1193 13.66C65.9726 13.66 66.726 13.8867 67.3793 14.34C68.046 14.7933 68.5593 15.42 68.9193 16.22C69.2793 17.02 69.4593 17.92 69.4593 18.92C69.4593 19.8933 69.2793 20.78 68.9193 21.58C68.5593 22.3667 67.9926 23 67.2193 23.48C66.4593 23.96 65.4926 24.2 64.3193 24.2ZM64.2993 22.7C65.5526 22.7 66.4526 22.3533 66.9993 21.66C67.546 20.9667 67.8193 20.06 67.8193 18.94C67.8193 18.1533 67.6926 17.4733 67.4393 16.9C67.1993 16.3267 66.866 15.8933 66.4393 15.6C66.026 15.2933 65.566 15.14 65.0593 15.14C64.4993 15.14 63.9393 15.34 63.3793 15.74C62.8193 16.1533 62.506 16.72 62.4393 17.44V22.58L63.2193 22.66C63.486 22.6867 63.846 22.7 64.2993 22.7ZM75.9759 24.2C75.0292 24.2 74.1759 23.9733 73.4159 23.52C72.6692 23.0667 72.0825 22.4467 71.6559 21.66C71.2292 20.86 71.0159 19.96 71.0159 18.96C71.0159 17.96 71.2292 17.06 71.6559 16.26C72.0959 15.4467 72.6892 14.8133 73.4359 14.36C74.1959 13.8933 75.0492 13.66 75.9959 13.66C76.9425 13.66 77.7892 13.8867 78.5359 14.34C79.2959 14.7933 79.8892 15.4267 80.3159 16.24C80.7425 17.04 80.9559 17.94 80.9559 18.94C80.9559 19.94 80.7425 20.84 80.3159 21.64C79.8892 22.44 79.2959 23.0667 78.5359 23.52C77.7759 23.9733 76.9225 24.2 75.9759 24.2ZM75.9959 22.72C76.9959 22.72 77.7959 22.3733 78.3959 21.68C79.0092 20.9867 79.3159 20.0733 79.3159 18.94C79.3159 17.7933 79.0092 16.8733 78.3959 16.18C77.7959 15.4867 76.9959 15.14 75.9959 15.14C75.3425 15.14 74.7625 15.3 74.2559 15.62C73.7492 15.94 73.3559 16.3867 73.0759 16.96C72.7959 17.5333 72.6559 18.1933 72.6559 18.94C72.6559 20.0733 72.9625 20.9867 73.5759 21.68C74.1892 22.3733 74.9959 22.72 75.9959 22.72ZM89.6654 22.78C89.3854 23.22 88.9454 23.56 88.3454 23.8C87.7454 24.04 87.1254 24.16 86.4854 24.16C85.4721 24.16 84.6521 23.9067 84.0254 23.4C83.3987 22.88 83.0721 22.1133 83.0454 21.1V17.02C83.0454 15.98 82.7654 15.22 82.2054 14.74L83.3054 13.72C83.6387 13.9067 83.9454 14.24 84.2254 14.72C84.5187 15.2 84.6721 15.7133 84.6854 16.26V20.58C84.6854 21.26 84.8321 21.78 85.1254 22.14C85.4187 22.5 85.9054 22.68 86.5854 22.68C87.1854 22.68 87.6921 22.54 88.1054 22.26C88.5187 21.98 88.9721 21.5133 89.4654 20.86L89.4854 14H91.1254V22.14C91.1254 22.3267 91.1654 22.4733 91.2454 22.58C91.3387 22.6733 91.4721 22.72 91.6454 22.72C91.8721 22.72 92.0521 22.6067 92.1854 22.38L93.3054 23.12C93.1321 23.4533 92.8787 23.72 92.5454 23.92C92.2254 24.1067 91.8787 24.2 91.5054 24.2C91.0121 24.2 90.5854 24.06 90.2254 23.78C89.8787 23.4867 89.6921 23.1467 89.6654 22.76V22.78ZM97.5023 24.2C96.5689 24.2 95.8623 23.92 95.3823 23.36C94.9156 22.7867 94.6823 21.9933 94.6823 20.98V11.42H96.3223V14H99.3823V15.48H96.3223V20.98C96.3223 21.46 96.4223 21.8667 96.6223 22.2C96.8223 22.52 97.1156 22.68 97.5023 22.68C97.8889 22.68 98.2156 22.5733 98.4823 22.36C98.7489 22.1333 98.9556 21.8333 99.1023 21.46L100.382 22.28C99.7423 23.56 98.7823 24.2 97.5023 24.2ZM109.005 24.24C108.565 24.24 108.165 24.1 107.805 23.82C107.445 23.54 107.212 23.2067 107.105 22.82L108.505 22.24C108.612 22.44 108.692 22.5667 108.745 22.62C108.798 22.6733 108.885 22.7 109.005 22.7C109.098 22.7 109.165 22.68 109.205 22.64C109.258 22.6 109.305 22.5333 109.345 22.44L111.925 10.28H113.425L117.265 20.8L117.525 21.72L117.785 20.8L121.665 10.28H123.185L126.005 24.02H124.365L122.205 13.26L122.185 12.94L122.125 13.26L118.245 24.02H116.805L112.985 13.38L112.925 12.94L112.865 13.38L110.905 22.68C110.812 23.1067 110.585 23.4733 110.225 23.78C109.865 24.0867 109.458 24.24 109.005 24.24ZM132.103 24.2C131.116 24.2 130.269 23.9867 129.563 23.56C128.869 23.12 128.343 22.5333 127.983 21.8C127.623 21.0533 127.443 20.22 127.443 19.3C127.443 18.3933 127.616 17.5133 127.963 16.66C128.309 15.8067 128.829 15.1 129.523 14.54C130.216 13.98 131.069 13.7 132.083 13.7C132.749 13.7 133.369 13.8333 133.943 14.1C134.516 14.3533 134.969 14.7267 135.303 15.22C135.649 15.7 135.823 16.26 135.823 16.9C135.823 17.9267 135.403 18.7333 134.563 19.32C133.723 19.9067 132.629 20.1867 131.283 20.16L129.203 20.12C129.349 20.9467 129.669 21.5867 130.163 22.04C130.669 22.48 131.336 22.7 132.163 22.7C133.243 22.7 134.269 22.34 135.243 21.62L136.143 22.76C134.876 23.72 133.529 24.2 132.103 24.2ZM131.283 18.72C132.176 18.72 132.883 18.5667 133.403 18.26C133.923 17.9533 134.183 17.4933 134.183 16.88C134.183 16.3333 133.983 15.9133 133.583 15.62C133.196 15.3267 132.729 15.18 132.183 15.18C131.569 15.18 131.036 15.3667 130.583 15.74C130.129 16.1 129.783 16.5533 129.543 17.1C129.303 17.6467 129.163 18.1867 129.123 18.72H131.283Z" fill="#FAB2E0"/>
</svg>
