<svg width="70" height="70" viewBox="0 0 70 70" fill="none" xmlns="http://www.w3.org/2000/svg">
<circle cx="35" cy="35" r="33.5" stroke="#F8F8F8" stroke-width="3"/>
<path d="M42 21H28C24.134 21 21 24.134 21 28V42C21 45.866 24.134 49 28 49H42C45.866 49 49 45.866 49 42V28C49 24.134 45.866 21 42 21Z" stroke="#F8F8F8" stroke-width="3" stroke-linecap="round" stroke-linejoin="round"/>
<path d="M40.9351 34.1199C41.1202 35.3683 40.907 36.6432 40.3257 37.7634C39.7445 38.8836 38.8248 39.792 37.6975 40.3594C36.5703 40.9268 35.2928 41.1243 34.0468 40.9238C32.8008 40.7233 31.6497 40.135 30.7574 39.2426C29.865 38.3503 29.2767 37.1992 29.0762 35.9532C28.8757 34.7072 29.0732 33.4297 29.6406 32.3025C30.208 31.1752 31.1164 30.2555 32.2366 29.6743C33.3568 29.093 34.6317 28.8798 35.8801 29.0649C37.1535 29.2537 38.3324 29.8471 39.2426 30.7574C40.1529 31.6676 40.7463 32.8465 40.9351 34.1199Z" stroke="#F8F8F8" stroke-width="3" stroke-linecap="round" stroke-linejoin="round"/>
<path d="M44.9784 26.7066C45.0401 27.1228 44.969 27.5477 44.7752 27.9211C44.5815 28.2945 44.2749 28.5973 43.8992 28.7865C43.5234 28.9756 43.0976 29.0414 42.6823 28.9746C42.2669 28.9078 41.8832 28.7117 41.5858 28.4142C41.2883 28.1168 41.0922 27.7331 41.0254 27.3177C40.9586 26.9024 41.0244 26.4766 41.2135 26.1008C41.4027 25.7251 41.7055 25.4185 42.0789 25.2248C42.4523 25.031 42.8772 24.9599 43.2934 25.0216C43.7178 25.0846 44.1108 25.2824 44.4142 25.5858C44.7176 25.8892 44.9154 26.2822 44.9784 26.7066Z" fill="#F8F8F8"/>
</svg>
