<svg width="70" height="70" viewBox="0 0 70 70" fill="none" xmlns="http://www.w3.org/2000/svg">
<circle cx="35" cy="35" r="33.5" stroke="#F8F8F8" stroke-width="3"/>
<path d="M41 26C43.3869 26 45.6761 26.9725 47.364 28.7036C49.0518 30.4347 50 32.7826 50 35.2308V46H44V35.2308C44 34.4147 43.6839 33.6321 43.1213 33.0551C42.5587 32.478 41.7956 32.1538 41 32.1538C40.2044 32.1538 39.4413 32.478 38.8787 33.0551C38.3161 33.6321 38 34.4147 38 35.2308V46H32V35.2308C32 32.7826 32.9482 30.4347 34.636 28.7036C36.3239 26.9725 38.6131 26 41 26Z" fill="#F8F8F8"/>
<path d="M26 28H20V46H26V28Z" fill="#F8F8F8"/>
<path d="M23 24C24.6569 24 26 22.6569 26 21C26 19.3431 24.6569 18 23 18C21.3431 18 20 19.3431 20 21C20 22.6569 21.3431 24 23 24Z" fill="#F8F8F8"/>
</svg>
