<svg width="773" height="385" viewBox="0 0 773 385" fill="none" xmlns="http://www.w3.org/2000/svg">
<path d="M50.0986 68.5098C65.3981 68.5098 77.3203 74.0843 85.8652 85.2334C86.679 86.2913 87.0859 87.5527 87.0859 89.0176C87.0859 91.8659 85.8652 94.877 83.4238 98.0508C81.0638 101.225 79.07 102.812 77.4424 102.812C76.9541 102.812 76.5879 102.649 76.3438 102.323C69.1009 93.5342 60.4746 89.1396 50.4648 89.1396C44.8496 89.1396 40.333 91.5404 36.915 96.3418C33.4971 101.062 31.7881 106.84 31.7881 113.676C31.7881 120.105 33.2529 125.354 36.1826 129.423C39.1123 133.492 43.3034 137.276 48.7559 140.775L64.2588 150.785C80.6162 161.365 88.7949 176.827 88.7949 197.172C88.7949 212.064 85.0107 224.231 77.4424 233.671C69.874 243.111 59.7015 247.831 46.9248 247.831C29.6722 247.831 16.0817 240.385 6.15332 225.492C5.66504 224.76 5.4209 223.824 5.4209 222.685C5.4209 219.836 6.56022 216.744 8.83887 213.407C11.1989 209.989 13.4368 208.28 15.5527 208.28C16.3665 208.28 17.099 208.646 17.75 209.379C26.8646 221.016 36.5895 226.835 46.9248 226.835C53.2725 226.835 58.2367 224.394 61.8174 219.511C65.3981 214.547 67.1885 208.28 67.1885 200.712C67.1885 193.876 65.7643 188.342 62.916 184.11C60.0677 179.797 55.7139 175.728 49.8545 171.903L34.2295 161.405C30.8115 159.127 27.8411 156.767 25.3184 154.325C22.7956 151.884 20.3542 148.954 17.9941 145.536C15.7155 142.037 13.9251 137.968 12.623 133.329C11.4023 128.609 10.792 123.441 10.792 117.826C10.792 103.178 14.332 91.2962 21.4121 82.1816C28.5736 73.0671 38.1357 68.5098 50.0986 68.5098ZM226.417 228.544C232.114 228.544 236.467 226.632 239.479 222.807C242.49 218.9 244.687 211.902 246.07 201.811C247.454 191.638 248.146 176.827 248.146 157.377C248.146 138.578 247.494 124.337 246.192 114.652C244.89 104.968 242.734 98.1729 239.723 94.2666C236.793 90.279 232.398 88.2852 226.539 88.2852C220.842 88.2852 216.448 90.3197 213.355 94.3887C210.344 98.3763 208.188 105.253 206.886 115.019C205.584 124.784 204.933 138.904 204.933 157.377C204.933 176.664 205.624 191.394 207.008 201.566C208.391 211.658 210.548 218.697 213.478 222.685C216.489 226.591 220.802 228.544 226.417 228.544ZM226.539 247.831C219.785 247.831 214.047 247.099 209.327 245.634C204.688 244.169 200.457 241.524 196.632 237.699C192.807 233.793 189.796 228.422 187.599 221.586C185.401 214.75 183.692 206.124 182.472 195.707C181.332 185.209 180.763 172.432 180.763 157.377C180.763 145.333 181.129 134.753 181.861 125.639C182.675 116.524 183.937 108.671 185.646 102.079C187.436 95.4873 189.511 90.0348 191.871 85.7217C194.231 81.4085 197.201 77.9906 200.782 75.4678C204.363 72.8636 208.188 71.0732 212.257 70.0967C216.326 69.0387 221.087 68.5098 226.539 68.5098C233.131 68.5098 238.746 69.2829 243.385 70.8291C248.105 72.2939 252.377 74.9388 256.202 78.7637C260.027 82.5885 263.079 87.8783 265.357 94.6328C267.636 101.306 269.345 109.81 270.484 120.146C271.705 130.399 272.315 142.81 272.315 157.377C272.315 172.514 271.746 185.331 270.606 195.829C269.467 206.327 267.799 214.994 265.602 221.83C263.404 228.666 260.393 233.996 256.568 237.821C252.743 241.565 248.471 244.169 243.751 245.634C239.112 247.099 233.375 247.831 226.539 247.831ZM407.618 68.5098C422.918 68.5098 434.84 74.0843 443.385 85.2334C444.199 86.2913 444.605 87.5527 444.605 89.0176C444.605 91.8659 443.385 94.877 440.943 98.0508C438.583 101.225 436.59 102.812 434.962 102.812C434.474 102.812 434.107 102.649 433.863 102.323C426.62 93.5342 417.994 89.1396 407.984 89.1396C402.369 89.1396 397.853 91.5404 394.435 96.3418C391.017 101.062 389.308 106.84 389.308 113.676C389.308 120.105 390.772 125.354 393.702 129.423C396.632 133.492 400.823 137.276 406.275 140.775L421.778 150.785C438.136 161.365 446.314 176.827 446.314 197.172C446.314 212.064 442.53 224.231 434.962 233.671C427.394 243.111 417.221 247.831 404.444 247.831C387.192 247.831 373.601 240.385 363.673 225.492C363.185 224.76 362.94 223.824 362.94 222.685C362.94 219.836 364.08 216.744 366.358 213.407C368.718 209.989 370.956 208.28 373.072 208.28C373.886 208.28 374.618 208.646 375.27 209.379C384.384 221.016 394.109 226.835 404.444 226.835C410.792 226.835 415.756 224.394 419.337 219.511C422.918 214.547 424.708 208.28 424.708 200.712C424.708 193.876 423.284 188.342 420.436 184.11C417.587 179.797 413.233 175.728 407.374 171.903L391.749 161.405C388.331 159.127 385.361 156.767 382.838 154.325C380.315 151.884 377.874 148.954 375.514 145.536C373.235 142.037 371.445 137.968 370.143 133.329C368.922 128.609 368.312 123.441 368.312 117.826C368.312 103.178 371.852 91.2962 378.932 82.1816C386.093 73.0671 395.655 68.5098 407.618 68.5098ZM545.118 246C544.386 246 543.816 245.919 543.409 245.756C543.002 245.512 542.636 244.942 542.311 244.047C542.066 243.152 541.944 241.89 541.944 240.263V76.2002C541.944 73.8402 542.188 72.2939 542.677 71.5615C543.246 70.8291 544.06 70.4629 545.118 70.4629H563.062C563.714 70.4629 564.243 70.585 564.649 70.8291C565.056 70.9919 565.382 71.5208 565.626 72.416C565.951 73.3112 566.114 74.5726 566.114 76.2002V240.263C566.114 242.623 565.87 244.169 565.382 244.901C564.894 245.634 564.12 246 563.062 246H545.118ZM672.486 246C671.428 246 670.615 245.593 670.045 244.779C669.557 243.965 669.312 242.338 669.312 239.896V76.9326C669.312 72.6195 670.37 70.4629 672.486 70.4629H691.041C692.75 70.4629 694.215 72.0498 695.436 75.2236L736.817 186.43C736.98 186.999 737.224 186.837 737.55 185.941L737.672 184.843V76.9326C737.672 72.6195 738.771 70.4629 740.968 70.4629H755.494C757.529 70.4629 758.546 72.6195 758.546 76.9326V240.385C758.546 242.826 758.302 244.413 757.813 245.146C757.325 245.797 756.552 246.122 755.494 246.122H742.311C741.497 246.122 740.602 245.634 739.625 244.657C738.73 243.681 737.997 242.46 737.428 240.995L691.407 120.878C691.082 120.227 690.838 120.43 690.675 121.488C690.593 121.732 690.553 122.017 690.553 122.343V239.896C690.553 242.338 690.268 243.965 689.698 244.779C689.21 245.593 688.396 246 687.257 246H672.486Z" fill="#FAB2E0"/>
<path d="M25.3344 282.938C30.5844 282.938 34.7563 284.875 37.85 288.75C38.1 289.094 38.225 289.469 38.225 289.875C38.225 290.531 37.9438 291.172 37.3813 291.797C36.8188 292.391 36.3031 292.688 35.8344 292.688C35.6156 292.688 35.4594 292.625 35.3656 292.5C32.6781 289.125 29.3656 287.438 25.4281 287.438C22.5531 287.438 20.3188 288.562 18.725 290.812C17.1625 293.031 16.3813 295.891 16.3813 299.391C16.3813 301.547 16.7563 303.469 17.5063 305.156C18.2875 306.844 19.1156 308.109 19.9906 308.953C20.8656 309.797 21.9906 310.688 23.3656 311.625L29.6938 315.844C31.0688 316.75 32.2563 317.672 33.2563 318.609C34.2563 319.516 35.225 320.656 36.1625 322.031C37.1313 323.406 37.85 325.047 38.3188 326.953C38.8188 328.828 39.0688 330.953 39.0688 333.328C39.0688 338.641 37.725 343.031 35.0375 346.5C32.3813 349.938 28.8188 351.656 24.35 351.656C17.9438 351.656 12.975 348.797 9.44376 343.078C9.31876 342.859 9.25626 342.609 9.25626 342.328C9.25626 341.672 9.53751 341.031 10.1 340.406C10.6625 339.781 11.225 339.469 11.7875 339.469C12.1313 339.469 12.3813 339.594 12.5375 339.844C14.225 342.406 15.9906 344.25 17.8344 345.375C19.6781 346.5 21.8031 347.062 24.2094 347.062C27.2094 347.062 29.6 345.859 31.3813 343.453C33.1625 341.047 34.0531 337.891 34.0531 333.984C34.0531 332.172 33.8813 330.594 33.5375 329.25C33.225 327.875 32.7094 326.672 31.9906 325.641C31.2719 324.609 30.5219 323.75 29.7406 323.062C28.9906 322.375 28.0219 321.625 26.8344 320.812L20.4125 316.453C19.1938 315.609 18.1469 314.797 17.2719 314.016C16.3969 313.234 15.4594 312.203 14.4594 310.922C13.4906 309.609 12.7406 308.047 12.2094 306.234C11.7094 304.391 11.4594 302.344 11.4594 300.094C11.4594 294.969 12.7094 290.828 15.2094 287.672C17.7406 284.516 21.1156 282.938 25.3344 282.938ZM159.429 351C159.023 351 158.726 350.875 158.538 350.625C158.382 350.344 158.304 349.734 158.304 348.797V285.797C158.304 284.859 158.382 284.266 158.538 284.016C158.726 283.734 159.023 283.594 159.429 283.594H162.335C162.773 283.594 163.085 283.734 163.273 284.016C163.46 284.266 163.554 284.859 163.554 285.797V313.312C163.554 313.406 163.585 313.562 163.648 313.781C163.741 314 163.804 314.109 163.835 314.109H183.851C183.882 314.109 183.96 313.984 184.085 313.734C184.21 313.453 184.273 313.266 184.273 313.172V285.797C184.273 284.859 184.366 284.266 184.554 284.016C184.741 283.734 185.069 283.594 185.538 283.594H188.444C188.819 283.594 189.085 283.734 189.241 284.016C189.429 284.266 189.523 284.859 189.523 285.797V348.797C189.523 349.734 189.429 350.344 189.241 350.625C189.085 350.875 188.819 351 188.444 351H185.538C185.069 351 184.741 350.875 184.554 350.625C184.366 350.344 184.273 349.734 184.273 348.797V319.5C184.273 319.406 184.21 319.234 184.085 318.984C183.991 318.734 183.929 318.609 183.898 318.609H163.882C163.851 318.609 163.788 318.719 163.694 318.938C163.632 319.156 163.601 319.312 163.601 319.406V348.797C163.601 349.734 163.507 350.344 163.319 350.625C163.132 350.875 162.819 351 162.382 351H159.429ZM309.32 351C308.851 351 308.617 350.516 308.617 349.547V349.031C308.617 348.781 308.633 348.562 308.664 348.375L320.289 286.172C320.601 284.547 321.164 283.688 321.976 283.594H326.429C327.242 283.688 327.789 284.547 328.07 286.172L339.039 348.375C339.07 348.531 339.117 348.734 339.179 348.984C339.273 349.203 339.32 349.406 339.32 349.594C339.32 350.531 339.086 351 338.617 351H335.289C334.289 351 333.664 350.234 333.414 348.703L331.304 335.203C331.211 334.891 331.117 334.734 331.023 334.734H316.351C316.289 334.734 316.211 334.906 316.117 335.25L313.679 348.656C313.492 349.562 313.273 350.188 313.023 350.531C312.804 350.844 312.476 351 312.039 351H309.32ZM317.711 330.984C317.711 330.984 321.914 330.984 330.32 330.984C330.445 330.984 330.508 330.844 330.508 330.562C330.508 330.406 330.476 330.312 330.414 330.281L324.179 290.25L324.086 290.062C324.023 290.062 323.992 290.125 323.992 290.25L317.289 330.047C317.258 330.203 317.242 330.344 317.242 330.469C317.242 330.812 317.398 330.984 317.711 330.984ZM459.258 351C458.977 351 458.774 350.984 458.649 350.953C458.524 350.891 458.414 350.734 458.321 350.484C458.227 350.234 458.18 349.859 458.18 349.359V285.234C458.18 284.578 458.258 284.141 458.414 283.922C458.602 283.703 458.883 283.594 459.258 283.594H480.071C480.477 283.594 480.758 283.672 480.914 283.828C481.071 283.984 481.149 284.391 481.149 285.047V286.359C481.149 286.828 481.086 287.172 480.961 287.391C480.868 287.609 480.758 287.734 480.633 287.766C480.539 287.797 480.352 287.812 480.071 287.812H463.899C463.586 287.812 463.43 288.219 463.43 289.031V313.875C463.43 313.969 463.461 314.094 463.524 314.25C463.618 314.375 463.68 314.438 463.711 314.438H477.774C478.18 314.438 478.461 314.516 478.618 314.672C478.774 314.828 478.852 315.203 478.852 315.797V317.344C478.852 318 478.774 318.406 478.618 318.562C478.461 318.719 478.18 318.797 477.774 318.797H463.758C463.727 318.797 463.664 318.922 463.571 319.172C463.477 319.422 463.43 319.594 463.43 319.688V349.359C463.43 349.859 463.383 350.234 463.289 350.484C463.196 350.734 463.086 350.891 462.961 350.953C462.836 350.984 462.633 351 462.352 351H459.258ZM600.524 351C600.118 351 599.837 350.875 599.681 350.625C599.524 350.344 599.446 349.734 599.446 348.797V285.797C599.446 284.859 599.524 284.266 599.681 284.016C599.837 283.734 600.118 283.594 600.524 283.594H603.618C604.024 283.594 604.306 283.734 604.462 284.016C604.618 284.266 604.696 284.859 604.696 285.797V348.797C604.696 349.734 604.618 350.344 604.462 350.625C604.306 350.875 604.024 351 603.618 351H600.524ZM748.775 365.906C748.775 365.906 747.494 361.094 744.931 351.469C744.369 351.594 743.494 351.656 742.306 351.656C739.869 351.594 737.806 351.297 736.119 350.766C734.463 350.203 732.9 349.188 731.431 347.719C729.963 346.25 728.806 344.25 727.963 341.719C727.119 339.156 726.463 335.859 725.994 331.828C725.525 327.766 725.291 322.859 725.291 317.109C725.291 311.609 725.525 306.891 725.994 302.953C726.494 298.984 727.197 295.719 728.103 293.156C729.009 290.562 730.197 288.516 731.666 287.016C733.166 285.484 734.806 284.422 736.588 283.828C738.369 283.234 740.494 282.938 742.963 282.938C745.463 282.938 747.603 283.234 749.384 283.828C751.197 284.391 752.853 285.422 754.353 286.922C755.853 288.391 757.041 290.406 757.916 292.969C758.822 295.531 759.509 298.812 759.978 302.812C760.478 306.781 760.728 311.547 760.728 317.109C760.728 324.922 760.306 331.203 759.463 335.953C758.65 340.672 757.463 344.141 755.9 346.359C754.338 348.578 752.228 350.094 749.572 350.906C749.634 351.156 749.963 352.438 750.556 354.75C751.15 357.062 751.728 359.312 752.291 361.5C752.853 363.719 753.134 364.875 753.134 364.969C753.166 365.062 753.197 365.203 753.228 365.391C753.291 365.609 753.322 365.75 753.322 365.812C753.353 365.875 753.384 365.969 753.416 366.094C753.447 366.25 753.463 366.344 753.463 366.375C753.463 366.438 753.447 366.516 753.416 366.609C753.416 366.703 753.384 366.766 753.322 366.797C753.291 366.859 753.244 366.922 753.181 366.984C753.119 367.047 753.025 367.094 752.9 367.125C752.806 367.188 752.697 367.234 752.572 367.266C751.353 367.641 750.572 367.828 750.228 367.828C749.572 367.828 749.088 367.188 748.775 365.906ZM742.963 347.297C744.431 347.297 745.666 347.172 746.666 346.922C747.697 346.672 748.713 346.188 749.713 345.469C750.713 344.719 751.525 343.656 752.15 342.281C752.806 340.875 753.384 339.078 753.884 336.891C754.384 334.672 754.744 331.938 754.963 328.688C755.213 325.406 755.338 321.547 755.338 317.109C755.338 311.047 755.088 306.047 754.588 302.109C754.088 298.172 753.291 295.141 752.197 293.016C751.103 290.859 749.838 289.375 748.4 288.562C746.963 287.75 745.15 287.344 742.963 287.344C740.119 287.344 737.838 288.156 736.119 289.781C734.4 291.406 733.056 294.438 732.088 298.875C731.15 303.281 730.681 309.359 730.681 317.109C730.681 322.297 730.853 326.719 731.197 330.375C731.572 334 732.072 336.922 732.697 339.141C733.322 341.328 734.166 343.031 735.228 344.25C736.322 345.469 737.447 346.281 738.603 346.688C739.791 347.094 741.244 347.297 742.963 347.297Z" fill="#F8F8F8"/>
</svg>
