<svg width="756" height="61" viewBox="0 0 756 61" fill="none" xmlns="http://www.w3.org/2000/svg">
<path d="M30.852 41.416C30.516 42.04 30.072 42.532 29.52 42.892C28.992 43.228 28.368 43.396 27.648 43.396C26.52 43.396 25.62 43.072 24.948 42.424C24.3 41.752 23.976 40.84 23.976 39.688V30.4C23.88 29.224 23.592 28.396 23.112 27.916C22.632 27.436 21.912 27.196 20.952 27.196C19.992 27.196 19.128 27.436 18.36 27.916C17.616 28.372 16.956 29.164 16.38 30.292V43.036H13.428V30.868C13.428 29.692 13.176 28.792 12.672 28.168C12.168 27.52 11.424 27.196 10.44 27.196C9.456 27.196 8.544 27.484 7.704 28.06C6.864 28.612 6.252 29.32 5.868 30.184V43.036H2.916V30.4C2.916 28.528 2.412 27.16 1.404 26.296L3.384 24.46C3.768 24.676 4.152 25.024 4.536 25.504C4.92 25.96 5.232 26.488 5.472 27.088C6.144 26.296 6.924 25.672 7.812 25.216C8.7 24.76 9.636 24.532 10.62 24.532C11.676 24.532 12.648 24.796 13.536 25.324C14.424 25.852 15.108 26.56 15.588 27.448C16.284 26.56 17.1 25.852 18.036 25.324C18.972 24.796 19.956 24.532 20.988 24.532C22.788 24.532 24.228 25.024 25.308 26.008C26.388 26.992 26.928 28.432 26.928 30.328V39.796C26.928 40.06 27.012 40.288 27.18 40.48C27.348 40.648 27.564 40.732 27.828 40.732C28.212 40.732 28.512 40.516 28.728 40.084L30.852 41.416ZM40.8468 43.36C39.1428 43.36 37.6068 42.952 36.2388 42.136C34.8948 41.32 33.8388 40.204 33.0708 38.788C32.3028 37.348 31.9188 35.728 31.9188 33.928C31.9188 32.128 32.3028 30.508 33.0708 29.068C33.8628 27.604 34.9308 26.464 36.2748 25.648C37.6428 24.808 39.1788 24.388 40.8828 24.388C42.5868 24.388 44.1108 24.796 45.4548 25.612C46.8228 26.428 47.8908 27.568 48.6588 29.032C49.4268 30.472 49.8108 32.092 49.8108 33.892C49.8108 35.692 49.4268 37.312 48.6588 38.752C47.8908 40.192 46.8228 41.32 45.4548 42.136C44.0868 42.952 42.5508 43.36 40.8468 43.36ZM40.8828 40.696C42.6828 40.696 44.1228 40.072 45.2028 38.824C46.3068 37.576 46.8588 35.932 46.8588 33.892C46.8588 31.828 46.3068 30.172 45.2028 28.924C44.1228 27.676 42.6828 27.052 40.8828 27.052C39.7068 27.052 38.6628 27.34 37.7508 27.916C36.8388 28.492 36.1308 29.296 35.6268 30.328C35.1228 31.36 34.8708 32.548 34.8708 33.892C34.8708 35.932 35.4228 37.576 36.5268 38.824C37.6308 40.072 39.0828 40.696 40.8828 40.696ZM58.7115 43.36C57.0315 43.36 55.7595 42.856 54.8955 41.848C54.0555 40.816 53.6355 39.388 53.6355 37.564V20.356H56.5875V25H62.0955V27.664H56.5875V37.564C56.5875 38.428 56.7675 39.16 57.1275 39.76C57.4875 40.336 58.0155 40.624 58.7115 40.624C59.4075 40.624 59.9955 40.432 60.4755 40.048C60.9555 39.64 61.3275 39.1 61.5915 38.428L63.8955 39.904C62.7435 42.208 61.0155 43.36 58.7115 43.36ZM70.0909 39.796C70.0909 40.06 70.1749 40.288 70.3429 40.48C70.5109 40.648 70.7269 40.732 70.9909 40.732C71.3749 40.732 71.6749 40.516 71.8909 40.084L74.0149 41.416C73.6789 42.04 73.2349 42.532 72.6829 42.892C72.1549 43.228 71.5309 43.396 70.8109 43.396C69.6829 43.396 68.7829 43.072 68.1109 42.424C67.4629 41.752 67.1389 40.84 67.1389 39.688V24.964H70.0909V39.796ZM68.5789 21.472C68.0989 21.472 67.6669 21.28 67.2829 20.896C66.8989 20.512 66.7069 20.08 66.7069 19.6C66.7069 19.096 66.8989 18.652 67.2829 18.268C67.6669 17.884 68.0989 17.692 68.5789 17.692C69.0829 17.692 69.5269 17.884 69.9109 18.268C70.3189 18.652 70.5229 19.096 70.5229 19.6C70.5229 20.08 70.3189 20.512 69.9109 20.896C69.5269 21.28 69.0829 21.472 68.5789 21.472ZM84.0187 43.36C82.3147 43.36 80.7787 42.952 79.4107 42.136C78.0667 41.32 77.0107 40.204 76.2427 38.788C75.4747 37.348 75.0907 35.728 75.0907 33.928C75.0907 32.128 75.4747 30.508 76.2427 29.068C77.0347 27.604 78.1027 26.464 79.4467 25.648C80.8147 24.808 82.3507 24.388 84.0547 24.388C85.7587 24.388 87.2827 24.796 88.6267 25.612C89.9947 26.428 91.0627 27.568 91.8307 29.032C92.5987 30.472 92.9827 32.092 92.9827 33.892C92.9827 35.692 92.5987 37.312 91.8307 38.752C91.0627 40.192 89.9947 41.32 88.6267 42.136C87.2587 42.952 85.7227 43.36 84.0187 43.36ZM84.0547 40.696C85.8547 40.696 87.2947 40.072 88.3747 38.824C89.4787 37.576 90.0307 35.932 90.0307 33.892C90.0307 31.828 89.4787 30.172 88.3747 28.924C87.2947 27.676 85.8547 27.052 84.0547 27.052C82.8787 27.052 81.8347 27.34 80.9227 27.916C80.0107 28.492 79.3027 29.296 78.7987 30.328C78.2947 31.36 78.0427 32.548 78.0427 33.892C78.0427 35.932 78.5947 37.576 79.6987 38.824C80.8027 40.072 82.2547 40.696 84.0547 40.696ZM115.392 41.416C115.056 42.04 114.612 42.532 114.06 42.892C113.532 43.228 112.908 43.396 112.188 43.396C111.06 43.396 110.16 43.072 109.488 42.424C108.84 41.752 108.516 40.84 108.516 39.688V30.868C108.516 29.668 108.264 28.756 107.76 28.132C107.256 27.484 106.392 27.16 105.168 27.16C104.064 27.16 103.116 27.424 102.324 27.952C101.556 28.48 100.764 29.284 99.9478 30.364V43.036H96.9958V30.4C96.9958 28.528 96.4918 27.16 95.4838 26.296L97.4638 24.46C97.8718 24.676 98.2678 25.036 98.6518 25.54C99.0358 26.02 99.3478 26.572 99.5878 27.196C101.076 25.396 102.996 24.496 105.348 24.496C107.124 24.496 108.564 24.976 109.668 25.936C110.772 26.872 111.372 28.204 111.468 29.932V39.796C111.468 40.06 111.552 40.288 111.72 40.48C111.888 40.648 112.104 40.732 112.368 40.732C112.752 40.732 113.052 40.516 113.268 40.084L115.392 41.416ZM135.642 43.36C133.914 43.36 132.45 42.94 131.25 42.1C130.05 41.236 129.15 40.096 128.55 38.68C127.974 37.24 127.686 35.668 127.686 33.964C127.686 32.14 128.046 30.508 128.766 29.068C129.51 27.604 130.554 26.464 131.898 25.648C133.266 24.808 134.85 24.388 136.65 24.388C137.37 24.388 138.594 24.472 140.322 24.64V16.792H143.274V39.652C143.274 39.988 143.346 40.252 143.49 40.444C143.658 40.612 143.898 40.696 144.21 40.696C144.618 40.696 144.942 40.48 145.182 40.048L147.234 41.38C146.922 42.004 146.454 42.496 145.83 42.856C145.23 43.192 144.582 43.36 143.886 43.36C143.022 43.336 142.278 43.072 141.654 42.568C141.03 42.064 140.694 41.476 140.646 40.804C140.19 41.62 139.494 42.256 138.558 42.712C137.622 43.144 136.65 43.36 135.642 43.36ZM135.642 40.696C136.578 40.696 137.418 40.456 138.162 39.976C138.906 39.496 139.482 38.848 139.89 38.032C140.178 37.408 140.322 36.736 140.322 36.016V27.484C140.106 27.46 139.71 27.388 139.134 27.268C138.558 27.148 137.97 27.088 137.37 27.088C135.138 27.088 133.458 27.7 132.33 28.924C131.202 30.148 130.638 31.756 130.638 33.748C130.638 35.716 131.082 37.372 131.97 38.716C132.882 40.036 134.106 40.696 135.642 40.696ZM156.711 43.36C154.935 43.36 153.411 42.976 152.139 42.208C150.891 41.416 149.943 40.36 149.295 39.04C148.647 37.696 148.323 36.196 148.323 34.54C148.323 32.908 148.635 31.324 149.259 29.788C149.883 28.252 150.819 26.98 152.067 25.972C153.315 24.964 154.851 24.46 156.675 24.46C157.875 24.46 158.991 24.7 160.023 25.18C161.055 25.636 161.871 26.308 162.471 27.196C163.095 28.06 163.407 29.068 163.407 30.22C163.407 32.068 162.651 33.52 161.139 34.576C159.627 35.632 157.659 36.136 155.235 36.088L151.491 36.016C151.755 37.504 152.331 38.656 153.219 39.472C154.131 40.264 155.331 40.66 156.819 40.66C158.763 40.66 160.611 40.012 162.363 38.716L163.983 40.768C161.703 42.496 159.279 43.36 156.711 43.36ZM155.235 33.496C156.843 33.496 158.115 33.22 159.051 32.668C159.987 32.116 160.455 31.288 160.455 30.184C160.455 29.2 160.095 28.444 159.375 27.916C158.679 27.388 157.839 27.124 156.855 27.124C155.751 27.124 154.791 27.46 153.975 28.132C153.159 28.78 152.535 29.596 152.103 30.58C151.671 31.564 151.419 32.536 151.347 33.496H155.235ZM173.228 43.36C170.588 43.36 168.26 42.352 166.244 40.336L167.936 38.356C168.848 39.148 169.712 39.736 170.528 40.12C171.344 40.48 172.208 40.66 173.12 40.66C174.296 40.66 175.22 40.408 175.892 39.904C176.588 39.376 176.936 38.656 176.936 37.744C176.936 37.192 176.792 36.748 176.504 36.412C176.24 36.076 175.844 35.788 175.316 35.548C174.812 35.284 173.96 34.912 172.76 34.432C171.44 33.904 170.408 33.448 169.664 33.064C168.944 32.656 168.368 32.152 167.936 31.552C167.504 30.928 167.288 30.16 167.288 29.248C167.288 27.76 167.816 26.56 168.872 25.648C169.928 24.736 171.296 24.28 172.976 24.28C173.96 24.28 174.944 24.448 175.928 24.784C176.936 25.096 177.728 25.504 178.304 26.008L177.044 28.132C175.964 27.34 174.704 26.944 173.264 26.944C172.352 26.944 171.62 27.136 171.068 27.52C170.54 27.88 170.276 28.384 170.276 29.032C170.276 29.704 170.54 30.232 171.068 30.616C171.62 30.976 172.556 31.42 173.876 31.948C175.364 32.548 176.528 33.088 177.368 33.568C178.208 34.048 178.844 34.612 179.276 35.26C179.708 35.884 179.924 36.676 179.924 37.636C179.924 39.34 179.3 40.72 178.052 41.776C176.804 42.832 175.196 43.36 173.228 43.36ZM186.493 39.796C186.493 40.06 186.577 40.288 186.745 40.48C186.913 40.648 187.129 40.732 187.393 40.732C187.777 40.732 188.077 40.516 188.293 40.084L190.417 41.416C190.081 42.04 189.637 42.532 189.085 42.892C188.557 43.228 187.933 43.396 187.213 43.396C186.085 43.396 185.185 43.072 184.513 42.424C183.865 41.752 183.541 40.84 183.541 39.688V24.964H186.493V39.796ZM184.981 21.472C184.501 21.472 184.069 21.28 183.685 20.896C183.301 20.512 183.109 20.08 183.109 19.6C183.109 19.096 183.301 18.652 183.685 18.268C184.069 17.884 184.501 17.692 184.981 17.692C185.485 17.692 185.929 17.884 186.313 18.268C186.721 18.652 186.925 19.096 186.925 19.6C186.925 20.08 186.721 20.512 186.313 20.896C185.929 21.28 185.485 21.472 184.981 21.472ZM201.393 52.792C200.361 52.792 199.413 52.54 198.549 52.036C197.685 51.556 196.989 50.884 196.461 50.02C195.957 49.18 195.705 48.256 195.705 47.248C195.705 45.568 196.353 44.152 197.649 43C195.681 42.424 194.157 41.368 193.077 39.832C192.021 38.296 191.493 36.412 191.493 34.18C191.493 32.284 191.877 30.592 192.645 29.104C193.413 27.616 194.469 26.464 195.813 25.648C197.181 24.808 198.741 24.388 200.493 24.388L202.725 24.46L204.777 24.712H207.225V46.456C207.225 48.352 206.685 49.876 205.605 51.028C204.525 52.204 203.121 52.792 201.393 52.792ZM199.305 40.588C200.385 40.588 201.429 40.156 202.437 39.292C202.989 38.836 203.433 38.332 203.769 37.78C204.105 37.228 204.273 36.736 204.273 36.304V27.088L201.465 27.052H200.349C199.245 27.052 198.237 27.352 197.325 27.952C196.437 28.552 195.729 29.38 195.201 30.436C194.697 31.468 194.445 32.632 194.445 33.928C194.445 35.128 194.661 36.244 195.093 37.276C195.549 38.284 196.149 39.088 196.893 39.688C197.637 40.288 198.441 40.588 199.305 40.588ZM201.537 50.128C202.377 50.128 203.037 49.804 203.517 49.156C204.021 48.508 204.273 47.644 204.273 46.564V40.66C204.225 40.732 204.105 40.9 203.913 41.164C203.721 41.404 203.517 41.632 203.301 41.848C202.749 42.376 201.753 43.072 200.313 43.936C199.161 44.632 198.585 45.736 198.585 47.248C198.585 48.016 198.873 48.688 199.449 49.264C200.049 49.84 200.745 50.128 201.537 50.128ZM231.407 41.416C231.071 42.04 230.627 42.532 230.075 42.892C229.547 43.228 228.923 43.396 228.203 43.396C227.075 43.396 226.175 43.072 225.503 42.424C224.855 41.752 224.531 40.84 224.531 39.688V30.868C224.531 29.668 224.279 28.756 223.775 28.132C223.271 27.484 222.407 27.16 221.183 27.16C220.079 27.16 219.131 27.424 218.339 27.952C217.571 28.48 216.779 29.284 215.963 30.364V43.036H213.011V30.4C213.011 28.528 212.507 27.16 211.499 26.296L213.479 24.46C213.887 24.676 214.283 25.036 214.667 25.54C215.051 26.02 215.363 26.572 215.603 27.196C217.091 25.396 219.011 24.496 221.363 24.496C223.139 24.496 224.579 24.976 225.683 25.936C226.787 26.872 227.387 28.204 227.483 29.932V39.796C227.483 40.06 227.567 40.288 227.735 40.48C227.903 40.648 228.119 40.732 228.383 40.732C228.767 40.732 229.067 40.516 229.283 40.084L231.407 41.416ZM240.945 43.36C239.169 43.36 237.645 42.976 236.373 42.208C235.125 41.416 234.177 40.36 233.529 39.04C232.881 37.696 232.557 36.196 232.557 34.54C232.557 32.908 232.869 31.324 233.493 29.788C234.117 28.252 235.053 26.98 236.301 25.972C237.549 24.964 239.085 24.46 240.909 24.46C242.109 24.46 243.225 24.7 244.257 25.18C245.289 25.636 246.105 26.308 246.705 27.196C247.329 28.06 247.641 29.068 247.641 30.22C247.641 32.068 246.885 33.52 245.373 34.576C243.861 35.632 241.893 36.136 239.469 36.088L235.725 36.016C235.989 37.504 236.565 38.656 237.453 39.472C238.365 40.264 239.565 40.66 241.053 40.66C242.997 40.66 244.845 40.012 246.597 38.716L248.217 40.768C245.937 42.496 243.513 43.36 240.945 43.36ZM239.469 33.496C241.077 33.496 242.349 33.22 243.285 32.668C244.221 32.116 244.689 31.288 244.689 30.184C244.689 29.2 244.329 28.444 243.609 27.916C242.913 27.388 242.073 27.124 241.089 27.124C239.985 27.124 239.025 27.46 238.209 28.132C237.393 28.78 236.769 29.596 236.337 30.58C235.905 31.564 235.653 32.536 235.581 33.496H239.469ZM259.802 24.388C260.498 24.388 261.326 24.508 262.286 24.748L262.214 27.592C261.254 27.328 260.474 27.196 259.874 27.196C258.746 27.196 257.87 27.46 257.246 27.988C256.526 28.564 255.902 29.332 255.374 30.292V43.036H252.422V30.292C252.422 28.42 251.918 27.052 250.91 26.188L252.89 24.352C253.25 24.568 253.61 24.892 253.97 25.324C254.354 25.756 254.666 26.248 254.906 26.8C255.434 26.128 255.974 25.612 256.526 25.252C257.438 24.676 258.53 24.388 259.802 24.388ZM325.329 43.216C322.593 43.216 320.457 42.424 318.921 40.84C317.385 39.256 316.617 37.06 316.617 34.252C316.617 32.332 316.965 30.628 317.661 29.14C318.381 27.628 319.377 26.464 320.649 25.648C321.921 24.808 323.385 24.388 325.041 24.388C326.361 24.388 327.549 24.664 328.605 25.216C329.685 25.744 330.501 26.476 331.053 27.412C331.629 28.348 331.869 29.38 331.773 30.508H328.893C328.989 29.524 328.689 28.708 327.993 28.06C327.297 27.388 326.361 27.052 325.185 27.052C324.081 27.052 323.097 27.352 322.233 27.952C321.393 28.552 320.733 29.404 320.253 30.508C319.797 31.612 319.569 32.872 319.569 34.288C319.569 36.304 320.061 37.852 321.045 38.932C322.053 40.012 323.481 40.552 325.329 40.552C326.145 40.552 326.973 40.408 327.813 40.12C328.653 39.832 329.709 39.34 330.981 38.644L332.349 40.876C330.237 42.436 327.897 43.216 325.329 43.216ZM343.999 43.36C342.295 43.36 340.759 42.952 339.391 42.136C338.047 41.32 336.991 40.204 336.223 38.788C335.455 37.348 335.071 35.728 335.071 33.928C335.071 32.128 335.455 30.508 336.223 29.068C337.015 27.604 338.083 26.464 339.427 25.648C340.795 24.808 342.331 24.388 344.035 24.388C345.739 24.388 347.263 24.796 348.607 25.612C349.975 26.428 351.043 27.568 351.811 29.032C352.579 30.472 352.963 32.092 352.963 33.892C352.963 35.692 352.579 37.312 351.811 38.752C351.043 40.192 349.975 41.32 348.607 42.136C347.239 42.952 345.703 43.36 343.999 43.36ZM344.035 40.696C345.835 40.696 347.275 40.072 348.355 38.824C349.459 37.576 350.011 35.932 350.011 33.892C350.011 31.828 349.459 30.172 348.355 28.924C347.275 27.676 345.835 27.052 344.035 27.052C342.859 27.052 341.815 27.34 340.903 27.916C339.991 28.492 339.283 29.296 338.779 30.328C338.275 31.36 338.023 32.548 338.023 33.892C338.023 35.932 338.575 37.576 339.679 38.824C340.783 40.072 342.235 40.696 344.035 40.696ZM375.372 41.416C375.036 42.04 374.592 42.532 374.04 42.892C373.512 43.228 372.888 43.396 372.168 43.396C371.04 43.396 370.14 43.072 369.468 42.424C368.82 41.752 368.496 40.84 368.496 39.688V30.868C368.496 29.668 368.244 28.756 367.74 28.132C367.236 27.484 366.372 27.16 365.148 27.16C364.044 27.16 363.096 27.424 362.304 27.952C361.536 28.48 360.744 29.284 359.928 30.364V43.036H356.976V30.4C356.976 28.528 356.472 27.16 355.464 26.296L357.444 24.46C357.852 24.676 358.248 25.036 358.632 25.54C359.016 26.02 359.328 26.572 359.568 27.196C361.056 25.396 362.976 24.496 365.328 24.496C367.104 24.496 368.544 24.976 369.648 25.936C370.752 26.872 371.352 28.204 371.448 29.932V39.796C371.448 40.06 371.532 40.288 371.7 40.48C371.868 40.648 372.084 40.732 372.348 40.732C372.732 40.732 373.032 40.516 373.248 40.084L375.372 41.416ZM385.27 43.216C382.534 43.216 380.398 42.424 378.862 40.84C377.326 39.256 376.558 37.06 376.558 34.252C376.558 32.332 376.906 30.628 377.602 29.14C378.322 27.628 379.318 26.464 380.59 25.648C381.862 24.808 383.326 24.388 384.982 24.388C386.302 24.388 387.49 24.664 388.546 25.216C389.626 25.744 390.442 26.476 390.994 27.412C391.57 28.348 391.81 29.38 391.714 30.508H388.834C388.93 29.524 388.63 28.708 387.934 28.06C387.238 27.388 386.302 27.052 385.126 27.052C384.022 27.052 383.038 27.352 382.174 27.952C381.334 28.552 380.674 29.404 380.194 30.508C379.738 31.612 379.51 32.872 379.51 34.288C379.51 36.304 380.002 37.852 380.986 38.932C381.994 40.012 383.422 40.552 385.27 40.552C386.086 40.552 386.914 40.408 387.754 40.12C388.594 39.832 389.65 39.34 390.922 38.644L392.29 40.876C390.178 42.436 387.838 43.216 385.27 43.216ZM403.473 43.36C401.697 43.36 400.173 42.976 398.901 42.208C397.653 41.416 396.705 40.36 396.057 39.04C395.409 37.696 395.085 36.196 395.085 34.54C395.085 32.908 395.397 31.324 396.021 29.788C396.645 28.252 397.581 26.98 398.829 25.972C400.077 24.964 401.613 24.46 403.437 24.46C404.637 24.46 405.753 24.7 406.785 25.18C407.817 25.636 408.633 26.308 409.233 27.196C409.857 28.06 410.169 29.068 410.169 30.22C410.169 32.068 409.413 33.52 407.901 34.576C406.389 35.632 404.421 36.136 401.997 36.088L398.253 36.016C398.517 37.504 399.093 38.656 399.981 39.472C400.893 40.264 402.093 40.66 403.581 40.66C405.525 40.66 407.373 40.012 409.125 38.716L410.745 40.768C408.465 42.496 406.041 43.36 403.473 43.36ZM401.997 33.496C403.605 33.496 404.877 33.22 405.813 32.668C406.749 32.116 407.217 31.288 407.217 30.184C407.217 29.2 406.857 28.444 406.137 27.916C405.441 27.388 404.601 27.124 403.617 27.124C402.513 27.124 401.553 27.46 400.737 28.132C399.921 28.78 399.297 29.596 398.865 30.58C398.433 31.564 398.181 32.536 398.109 33.496H401.997ZM422.51 24.496C424.19 24.496 425.618 24.916 426.794 25.756C427.994 26.596 428.894 27.724 429.494 29.14C430.118 30.532 430.43 32.068 430.43 33.748C430.43 35.596 430.07 37.252 429.35 38.716C428.654 40.156 427.622 41.296 426.254 42.136C424.91 42.952 423.326 43.36 421.502 43.36C420.782 43.36 419.558 43.252 417.83 43.036V52.36H414.986V30.4C414.986 28.528 414.482 27.16 413.474 26.296L415.454 24.46C415.814 24.676 416.174 25 416.534 25.432C416.894 25.84 417.194 26.32 417.434 26.872C418.01 26.152 418.766 25.576 419.702 25.144C420.638 24.712 421.574 24.496 422.51 24.496ZM421.322 40.696C423.338 40.696 424.862 40.084 425.894 38.86C426.95 37.636 427.478 36.004 427.478 33.964C427.478 32.044 427.034 30.436 426.146 29.14C425.258 27.82 424.07 27.16 422.582 27.16C421.406 27.16 420.338 27.544 419.378 28.312C418.442 29.056 417.926 30.016 417.83 31.192V40.48C419.27 40.624 420.434 40.696 421.322 40.696ZM439.383 43.36C437.703 43.36 436.431 42.856 435.567 41.848C434.727 40.816 434.307 39.388 434.307 37.564V20.356H437.259V25H442.767V27.664H437.259V37.564C437.259 38.428 437.439 39.16 437.799 39.76C438.159 40.336 438.687 40.624 439.383 40.624C440.079 40.624 440.667 40.432 441.147 40.048C441.627 39.64 441.999 39.1 442.263 38.428L444.567 39.904C443.415 42.208 441.687 43.36 439.383 43.36ZM464.84 43.36C463.232 43.36 461.84 42.94 460.664 42.1C459.512 41.236 458.624 40.084 458 38.644C457.4 37.204 457.1 35.644 457.1 33.964C457.1 32.14 457.448 30.508 458.144 29.068C458.84 27.628 459.86 26.488 461.204 25.648C462.572 24.808 464.204 24.388 466.1 24.388C466.652 24.388 467.336 24.424 468.152 24.496C468.992 24.544 469.7 24.616 470.276 24.712H472.688V39.652C472.688 39.988 472.76 40.252 472.904 40.444C473.072 40.612 473.312 40.696 473.624 40.696C474.032 40.696 474.356 40.492 474.596 40.084L476.612 41.416C476.3 42.016 475.844 42.496 475.244 42.856C474.668 43.192 474.044 43.36 473.372 43.36C472.484 43.36 471.716 43.108 471.068 42.604C470.444 42.076 470.108 41.464 470.06 40.768V40.804C469.652 41.596 468.968 42.22 468.008 42.676C467.048 43.132 465.992 43.36 464.84 43.36ZM465.056 40.696C466.016 40.696 466.868 40.444 467.612 39.94C468.356 39.436 468.92 38.8 469.304 38.032C469.52 37.624 469.64 37.276 469.664 36.988C469.712 36.7 469.736 36.376 469.736 36.016V27.304L468.224 27.196C467.024 27.1 466.22 27.052 465.812 27.052C463.988 27.052 462.572 27.7 461.564 28.996C460.556 30.292 460.052 31.936 460.052 33.928C460.052 35.776 460.496 37.372 461.384 38.716C462.272 40.036 463.496 40.696 465.056 40.696ZM487.052 24.388C487.748 24.388 488.576 24.508 489.536 24.748L489.464 27.592C488.504 27.328 487.724 27.196 487.124 27.196C485.996 27.196 485.12 27.46 484.496 27.988C483.776 28.564 483.152 29.332 482.624 30.292V43.036H479.672V30.292C479.672 28.42 479.168 27.052 478.16 26.188L480.14 24.352C480.5 24.568 480.86 24.892 481.22 25.324C481.604 25.756 481.916 26.248 482.156 26.8C482.684 26.128 483.224 25.612 483.776 25.252C484.688 24.676 485.78 24.388 487.052 24.388ZM497.708 43.36C496.028 43.36 494.756 42.856 493.892 41.848C493.052 40.816 492.632 39.388 492.632 37.564V20.356H495.584V25H501.092V27.664H495.584V37.564C495.584 38.428 495.764 39.16 496.124 39.76C496.484 40.336 497.012 40.624 497.708 40.624C498.404 40.624 498.992 40.432 499.472 40.048C499.952 39.64 500.324 39.1 500.588 38.428L502.892 39.904C501.74 42.208 500.012 43.36 497.708 43.36ZM509.087 39.796C509.087 40.06 509.171 40.288 509.339 40.48C509.507 40.648 509.723 40.732 509.987 40.732C510.371 40.732 510.671 40.516 510.887 40.084L513.011 41.416C512.675 42.04 512.231 42.532 511.679 42.892C511.151 43.228 510.527 43.396 509.807 43.396C508.679 43.396 507.779 43.072 507.107 42.424C506.459 41.752 506.135 40.84 506.135 39.688V24.964H509.087V39.796ZM507.575 21.472C507.095 21.472 506.663 21.28 506.279 20.896C505.895 20.512 505.703 20.08 505.703 19.6C505.703 19.096 505.895 18.652 506.279 18.268C506.663 17.884 507.095 17.692 507.575 17.692C508.079 17.692 508.523 17.884 508.907 18.268C509.315 18.652 509.519 19.096 509.519 19.6C509.519 20.08 509.315 20.512 508.907 20.896C508.523 21.28 508.079 21.472 507.575 21.472ZM521.486 43.36C518.846 43.36 516.518 42.352 514.502 40.336L516.194 38.356C517.106 39.148 517.97 39.736 518.786 40.12C519.602 40.48 520.466 40.66 521.378 40.66C522.554 40.66 523.478 40.408 524.15 39.904C524.846 39.376 525.194 38.656 525.194 37.744C525.194 37.192 525.05 36.748 524.762 36.412C524.498 36.076 524.102 35.788 523.574 35.548C523.07 35.284 522.218 34.912 521.018 34.432C519.698 33.904 518.666 33.448 517.922 33.064C517.202 32.656 516.626 32.152 516.194 31.552C515.762 30.928 515.546 30.16 515.546 29.248C515.546 27.76 516.074 26.56 517.13 25.648C518.186 24.736 519.554 24.28 521.234 24.28C522.218 24.28 523.202 24.448 524.186 24.784C525.194 25.096 525.986 25.504 526.562 26.008L525.302 28.132C524.222 27.34 522.962 26.944 521.522 26.944C520.61 26.944 519.878 27.136 519.326 27.52C518.798 27.88 518.534 28.384 518.534 29.032C518.534 29.704 518.798 30.232 519.326 30.616C519.878 30.976 520.814 31.42 522.134 31.948C523.622 32.548 524.786 33.088 525.626 33.568C526.466 34.048 527.102 34.612 527.534 35.26C527.966 35.884 528.182 36.676 528.182 37.636C528.182 39.34 527.558 40.72 526.31 41.776C525.062 42.832 523.454 43.36 521.486 43.36ZM536.731 43.36C535.051 43.36 533.779 42.856 532.915 41.848C532.075 40.816 531.655 39.388 531.655 37.564V20.356H534.607V25H540.115V27.664H534.607V37.564C534.607 38.428 534.787 39.16 535.147 39.76C535.507 40.336 536.035 40.624 536.731 40.624C537.427 40.624 538.015 40.432 538.495 40.048C538.975 39.64 539.347 39.1 539.611 38.428L541.915 39.904C540.763 42.208 539.035 43.36 536.731 43.36ZM600.317 39.796C600.317 40.06 600.401 40.288 600.569 40.48C600.737 40.648 600.953 40.732 601.217 40.732C601.601 40.732 601.901 40.516 602.117 40.084L604.241 41.416C603.905 42.04 603.461 42.532 602.909 42.892C602.381 43.228 601.757 43.396 601.037 43.396C599.909 43.396 599.009 43.072 598.337 42.424C597.689 41.752 597.365 40.84 597.365 39.688V24.964H600.317V39.796ZM598.805 21.472C598.325 21.472 597.893 21.28 597.509 20.896C597.125 20.512 596.933 20.08 596.933 19.6C596.933 19.096 597.125 18.652 597.509 18.268C597.893 17.884 598.325 17.692 598.805 17.692C599.309 17.692 599.753 17.884 600.137 18.268C600.545 18.652 600.749 19.096 600.749 19.6C600.749 20.08 600.545 20.512 600.137 20.896C599.753 21.28 599.309 21.472 598.805 21.472ZM610.196 39.796C610.196 40.06 610.28 40.288 610.448 40.48C610.616 40.648 610.832 40.732 611.096 40.732C611.48 40.732 611.78 40.516 611.996 40.084L614.12 41.416C613.784 42.04 613.34 42.532 612.788 42.892C612.26 43.228 611.636 43.396 610.916 43.396C609.788 43.396 608.888 43.072 608.216 42.424C607.568 41.752 607.244 40.84 607.244 39.688V16.828H610.196V39.796ZM620.075 39.796C620.075 40.06 620.159 40.288 620.327 40.48C620.495 40.648 620.711 40.732 620.975 40.732C621.359 40.732 621.659 40.516 621.875 40.084L623.999 41.416C623.663 42.04 623.219 42.532 622.667 42.892C622.139 43.228 621.515 43.396 620.795 43.396C619.667 43.396 618.767 43.072 618.095 42.424C617.447 41.752 617.123 40.84 617.123 39.688V16.828H620.075V39.796ZM638.711 40.804C638.207 41.596 637.415 42.208 636.335 42.64C635.255 43.072 634.139 43.288 632.987 43.288C631.163 43.288 629.687 42.832 628.559 41.92C627.431 40.984 626.843 39.604 626.795 37.78V30.436C626.795 28.564 626.291 27.196 625.283 26.332L627.263 24.496C627.863 24.832 628.415 25.432 628.919 26.296C629.447 27.16 629.723 28.084 629.747 29.068V36.844C629.747 38.068 630.011 39.004 630.539 39.652C631.067 40.3 631.943 40.624 633.167 40.624C634.247 40.624 635.159 40.372 635.903 39.868C636.647 39.364 637.463 38.524 638.351 37.348L638.387 25H641.339V39.652C641.339 39.988 641.411 40.252 641.555 40.444C641.723 40.612 641.963 40.696 642.275 40.696C642.683 40.696 643.007 40.492 643.247 40.084L645.263 41.416C644.951 42.016 644.495 42.496 643.895 42.856C643.319 43.192 642.695 43.36 642.023 43.36C641.135 43.36 640.367 43.108 639.719 42.604C639.095 42.076 638.759 41.464 638.711 40.768V40.804ZM653.709 43.36C651.069 43.36 648.741 42.352 646.725 40.336L648.417 38.356C649.329 39.148 650.193 39.736 651.009 40.12C651.825 40.48 652.689 40.66 653.601 40.66C654.777 40.66 655.701 40.408 656.373 39.904C657.069 39.376 657.417 38.656 657.417 37.744C657.417 37.192 657.273 36.748 656.985 36.412C656.721 36.076 656.325 35.788 655.797 35.548C655.293 35.284 654.441 34.912 653.241 34.432C651.921 33.904 650.889 33.448 650.145 33.064C649.425 32.656 648.849 32.152 648.417 31.552C647.985 30.928 647.769 30.16 647.769 29.248C647.769 27.76 648.297 26.56 649.353 25.648C650.409 24.736 651.777 24.28 653.457 24.28C654.441 24.28 655.425 24.448 656.409 24.784C657.417 25.096 658.209 25.504 658.785 26.008L657.525 28.132C656.445 27.34 655.185 26.944 653.745 26.944C652.833 26.944 652.101 27.136 651.549 27.52C651.021 27.88 650.757 28.384 650.757 29.032C650.757 29.704 651.021 30.232 651.549 30.616C652.101 30.976 653.037 31.42 654.357 31.948C655.845 32.548 657.009 33.088 657.849 33.568C658.689 34.048 659.325 34.612 659.757 35.26C660.189 35.884 660.405 36.676 660.405 37.636C660.405 39.34 659.781 40.72 658.533 41.776C657.285 42.832 655.677 43.36 653.709 43.36ZM668.954 43.36C667.274 43.36 666.002 42.856 665.138 41.848C664.298 40.816 663.878 39.388 663.878 37.564V20.356H666.83V25H672.338V27.664H666.83V37.564C666.83 38.428 667.01 39.16 667.37 39.76C667.73 40.336 668.258 40.624 668.954 40.624C669.65 40.624 670.238 40.432 670.718 40.048C671.198 39.64 671.57 39.1 671.834 38.428L674.138 39.904C672.986 42.208 671.258 43.36 668.954 43.36ZM685.193 24.388C685.889 24.388 686.717 24.508 687.677 24.748L687.605 27.592C686.645 27.328 685.865 27.196 685.265 27.196C684.137 27.196 683.261 27.46 682.637 27.988C681.917 28.564 681.293 29.332 680.765 30.292V43.036H677.813V30.292C677.813 28.42 677.309 27.052 676.301 26.188L678.281 24.352C678.641 24.568 679.001 24.892 679.361 25.324C679.745 25.756 680.057 26.248 680.297 26.8C680.825 26.128 681.365 25.612 681.917 25.252C682.829 24.676 683.921 24.388 685.193 24.388ZM696.801 43.36C695.193 43.36 693.801 42.94 692.625 42.1C691.473 41.236 690.585 40.084 689.961 38.644C689.361 37.204 689.061 35.644 689.061 33.964C689.061 32.14 689.409 30.508 690.105 29.068C690.801 27.628 691.821 26.488 693.165 25.648C694.533 24.808 696.165 24.388 698.061 24.388C698.613 24.388 699.297 24.424 700.113 24.496C700.953 24.544 701.661 24.616 702.237 24.712H704.649V39.652C704.649 39.988 704.721 40.252 704.865 40.444C705.033 40.612 705.273 40.696 705.585 40.696C705.993 40.696 706.317 40.492 706.557 40.084L708.573 41.416C708.261 42.016 707.805 42.496 707.205 42.856C706.629 43.192 706.005 43.36 705.333 43.36C704.445 43.36 703.677 43.108 703.029 42.604C702.405 42.076 702.069 41.464 702.021 40.768V40.804C701.613 41.596 700.929 42.22 699.969 42.676C699.009 43.132 697.953 43.36 696.801 43.36ZM697.017 40.696C697.977 40.696 698.829 40.444 699.573 39.94C700.317 39.436 700.881 38.8 701.265 38.032C701.481 37.624 701.601 37.276 701.625 36.988C701.673 36.7 701.697 36.376 701.697 36.016V27.304L700.185 27.196C698.985 27.1 698.181 27.052 697.773 27.052C695.949 27.052 694.533 27.7 693.525 28.996C692.517 30.292 692.013 31.936 692.013 33.928C692.013 35.776 692.457 37.372 693.345 38.716C694.233 40.036 695.457 40.696 697.017 40.696ZM716.133 43.36C714.453 43.36 713.181 42.856 712.317 41.848C711.477 40.816 711.057 39.388 711.057 37.564V20.356H714.009V25H719.517V27.664H714.009V37.564C714.009 38.428 714.189 39.16 714.549 39.76C714.909 40.336 715.437 40.624 716.133 40.624C716.829 40.624 717.417 40.432 717.897 40.048C718.377 39.64 718.749 39.1 719.013 38.428L721.317 39.904C720.165 42.208 718.437 43.36 716.133 43.36ZM731.562 43.36C729.858 43.36 728.322 42.952 726.954 42.136C725.61 41.32 724.554 40.204 723.786 38.788C723.018 37.348 722.634 35.728 722.634 33.928C722.634 32.128 723.018 30.508 723.786 29.068C724.578 27.604 725.646 26.464 726.99 25.648C728.358 24.808 729.894 24.388 731.598 24.388C733.302 24.388 734.826 24.796 736.17 25.612C737.538 26.428 738.606 27.568 739.374 29.032C740.142 30.472 740.526 32.092 740.526 33.892C740.526 35.692 740.142 37.312 739.374 38.752C738.606 40.192 737.538 41.32 736.17 42.136C734.802 42.952 733.266 43.36 731.562 43.36ZM731.598 40.696C733.398 40.696 734.838 40.072 735.918 38.824C737.022 37.576 737.574 35.932 737.574 33.892C737.574 31.828 737.022 30.172 735.918 28.924C734.838 27.676 733.398 27.052 731.598 27.052C730.422 27.052 729.378 27.34 728.466 27.916C727.554 28.492 726.846 29.296 726.342 30.328C725.838 31.36 725.586 32.548 725.586 33.892C725.586 35.932 726.138 37.576 727.242 38.824C728.346 40.072 729.798 40.696 731.598 40.696ZM751.955 24.388C752.651 24.388 753.479 24.508 754.439 24.748L754.367 27.592C753.407 27.328 752.627 27.196 752.027 27.196C750.899 27.196 750.023 27.46 749.399 27.988C748.679 28.564 748.055 29.332 747.527 30.292V43.036H744.575V30.292C744.575 28.42 744.071 27.052 743.063 26.188L745.043 24.352C745.403 24.568 745.763 24.892 746.123 25.324C746.507 25.756 746.819 26.248 747.059 26.8C747.587 26.128 748.127 25.612 748.679 25.252C749.591 24.676 750.683 24.388 751.955 24.388Z" fill="#F8F8F8"/>
<path d="M284 34C284 36.7614 286.239 39 289 39C291.761 39 294 36.7614 294 34C294 31.2386 291.761 29 289 29C286.239 29 284 31.2386 284 34Z" fill="#FAB2E0"/>
<path d="M564 34C564 36.7614 566.239 39 569 39C571.761 39 574 36.7614 574 34C574 31.2386 571.761 29 569 29C566.239 29 564 31.2386 564 34Z" fill="#FAB2E0"/>
</svg>
