<svg width="360" height="80" viewBox="0 0 360 80" fill="none" xmlns="http://www.w3.org/2000/svg">
<rect width="360" height="80" rx="40" fill="#FAB2E0"/>
<path d="M59.7627 48.24C58.0027 48.24 56.4507 47.568 55.1067 46.224L56.2347 44.904C56.8427 45.432 57.4187 45.824 57.9627 46.08C58.5067 46.32 59.0827 46.44 59.6907 46.44C60.4747 46.44 61.0907 46.272 61.5387 45.936C62.0027 45.584 62.2347 45.104 62.2347 44.496C62.2347 44.128 62.1387 43.832 61.9467 43.608C61.7707 43.384 61.5067 43.192 61.1547 43.032C60.8187 42.856 60.2507 42.608 59.4507 42.288C58.5707 41.936 57.8827 41.632 57.3867 41.376C56.9067 41.104 56.5227 40.768 56.2347 40.368C55.9467 39.952 55.8027 39.44 55.8027 38.832C55.8027 37.84 56.1547 37.04 56.8587 36.432C57.5627 35.824 58.4747 35.52 59.5947 35.52C60.2507 35.52 60.9067 35.632 61.5627 35.856C62.2347 36.064 62.7627 36.336 63.1467 36.672L62.3067 38.088C61.5867 37.56 60.7467 37.296 59.7867 37.296C59.1787 37.296 58.6907 37.424 58.3227 37.68C57.9707 37.92 57.7947 38.256 57.7947 38.688C57.7947 39.136 57.9707 39.488 58.3227 39.744C58.6907 39.984 59.3147 40.28 60.1947 40.632C61.1867 41.032 61.9627 41.392 62.5227 41.712C63.0827 42.032 63.5067 42.408 63.7947 42.84C64.0827 43.256 64.2267 43.784 64.2267 44.424C64.2267 45.56 63.8107 46.48 62.9787 47.184C62.1467 47.888 61.0747 48.24 59.7627 48.24ZM72.0085 48.24C70.8725 48.24 69.8485 47.968 68.9365 47.424C68.0405 46.88 67.3365 46.136 66.8245 45.192C66.3125 44.232 66.0565 43.152 66.0565 41.952C66.0565 40.752 66.3125 39.672 66.8245 38.712C67.3525 37.736 68.0645 36.976 68.9605 36.432C69.8725 35.872 70.8965 35.592 72.0325 35.592C73.1685 35.592 74.1845 35.864 75.0805 36.408C75.9925 36.952 76.7045 37.712 77.2165 38.688C77.7285 39.648 77.9845 40.728 77.9845 41.928C77.9845 43.128 77.7285 44.208 77.2165 45.168C76.7045 46.128 75.9925 46.88 75.0805 47.424C74.1685 47.968 73.1445 48.24 72.0085 48.24ZM72.0325 46.464C73.2325 46.464 74.1925 46.048 74.9125 45.216C75.6485 44.384 76.0165 43.288 76.0165 41.928C76.0165 40.552 75.6485 39.448 74.9125 38.616C74.1925 37.784 73.2325 37.368 72.0325 37.368C71.2485 37.368 70.5525 37.56 69.9445 37.944C69.3365 38.328 68.8645 38.864 68.5285 39.552C68.1925 40.24 68.0245 41.032 68.0245 41.928C68.0245 43.288 68.3925 44.384 69.1285 45.216C69.8645 46.048 70.8325 46.464 72.0325 46.464ZM84.044 48.24C82.284 48.24 80.732 47.568 79.388 46.224L80.516 44.904C81.124 45.432 81.7 45.824 82.244 46.08C82.788 46.32 83.364 46.44 83.972 46.44C84.756 46.44 85.372 46.272 85.82 45.936C86.284 45.584 86.516 45.104 86.516 44.496C86.516 44.128 86.42 43.832 86.228 43.608C86.052 43.384 85.788 43.192 85.436 43.032C85.1 42.856 84.532 42.608 83.732 42.288C82.852 41.936 82.164 41.632 81.668 41.376C81.188 41.104 80.804 40.768 80.516 40.368C80.228 39.952 80.084 39.44 80.084 38.832C80.084 37.84 80.436 37.04 81.14 36.432C81.844 35.824 82.756 35.52 83.876 35.52C84.532 35.52 85.188 35.632 85.844 35.856C86.516 36.064 87.044 36.336 87.428 36.672L86.588 38.088C85.868 37.56 85.028 37.296 84.068 37.296C83.46 37.296 82.972 37.424 82.604 37.68C82.252 37.92 82.076 38.256 82.076 38.688C82.076 39.136 82.252 39.488 82.604 39.744C82.972 39.984 83.596 40.28 84.476 40.632C85.468 41.032 86.244 41.392 86.804 41.712C87.364 42.032 87.788 42.408 88.076 42.84C88.364 43.256 88.508 43.784 88.508 44.424C88.508 45.56 88.092 46.48 87.26 47.184C86.428 47.888 85.356 48.24 84.044 48.24ZM92.8874 45.864C92.8874 46.04 92.9434 46.192 93.0554 46.32C93.1674 46.432 93.3114 46.488 93.4874 46.488C93.7434 46.488 93.9434 46.344 94.0874 46.056L95.5034 46.944C95.2794 47.36 94.9834 47.688 94.6154 47.928C94.2634 48.152 93.8474 48.264 93.3674 48.264C92.6154 48.264 92.0154 48.048 91.5674 47.616C91.1354 47.168 90.9194 46.56 90.9194 45.792V35.976H92.8874V45.864ZM91.8794 33.648C91.5594 33.648 91.2714 33.52 91.0154 33.264C90.7594 33.008 90.6314 32.72 90.6314 32.4C90.6314 32.064 90.7594 31.768 91.0154 31.512C91.2714 31.256 91.5594 31.128 91.8794 31.128C92.2154 31.128 92.5114 31.256 92.7674 31.512C93.0394 31.768 93.1754 32.064 93.1754 32.4C93.1754 32.72 93.0394 33.008 92.7674 33.264C92.5114 33.52 92.2154 33.648 91.8794 33.648ZM109.799 46.944C109.575 47.36 109.279 47.688 108.911 47.928C108.559 48.152 108.143 48.264 107.663 48.264C106.911 48.264 106.311 48.048 105.863 47.616C105.431 47.168 105.215 46.56 105.215 45.792V39.912C105.215 39.112 105.047 38.504 104.711 38.088C104.375 37.656 103.799 37.44 102.983 37.44C102.247 37.44 101.615 37.616 101.087 37.968C100.575 38.32 100.047 38.856 99.503 39.576V48.024H97.535V39.6C97.535 38.352 97.199 37.44 96.527 36.864L97.847 35.64C98.119 35.784 98.383 36.024 98.639 36.36C98.895 36.68 99.103 37.048 99.263 37.464C100.255 36.264 101.535 35.664 103.103 35.664C104.287 35.664 105.247 35.984 105.983 36.624C106.719 37.248 107.119 38.136 107.183 39.288V45.864C107.183 46.04 107.239 46.192 107.351 46.32C107.463 46.432 107.607 46.488 107.783 46.488C108.039 46.488 108.239 46.344 108.383 46.056L109.799 46.944ZM115.45 48.24C113.69 48.24 112.138 47.568 110.794 46.224L111.922 44.904C112.53 45.432 113.106 45.824 113.65 46.08C114.194 46.32 114.77 46.44 115.378 46.44C116.162 46.44 116.778 46.272 117.226 45.936C117.69 45.584 117.922 45.104 117.922 44.496C117.922 44.128 117.826 43.832 117.634 43.608C117.458 43.384 117.194 43.192 116.842 43.032C116.506 42.856 115.938 42.608 115.138 42.288C114.258 41.936 113.57 41.632 113.074 41.376C112.594 41.104 112.21 40.768 111.922 40.368C111.634 39.952 111.49 39.44 111.49 38.832C111.49 37.84 111.842 37.04 112.546 36.432C113.25 35.824 114.162 35.52 115.282 35.52C115.938 35.52 116.594 35.632 117.25 35.856C117.922 36.064 118.45 36.336 118.834 36.672L117.994 38.088C117.274 37.56 116.434 37.296 115.474 37.296C114.866 37.296 114.378 37.424 114.01 37.68C113.658 37.92 113.482 38.256 113.482 38.688C113.482 39.136 113.658 39.488 114.01 39.744C114.378 39.984 115.002 40.28 115.882 40.632C116.874 41.032 117.65 41.392 118.21 41.712C118.77 42.032 119.194 42.408 119.482 42.84C119.77 43.256 119.914 43.784 119.914 44.424C119.914 45.56 119.498 46.48 118.666 47.184C117.834 47.888 116.762 48.24 115.45 48.24ZM132.142 45.864C132.142 46.04 132.198 46.192 132.31 46.32C132.422 46.432 132.566 46.488 132.742 46.488C132.998 46.488 133.198 46.344 133.342 46.056L134.758 46.944C134.534 47.36 134.238 47.688 133.87 47.928C133.518 48.152 133.102 48.264 132.622 48.264C131.87 48.264 131.27 48.048 130.822 47.616C130.39 47.168 130.174 46.56 130.174 45.792V39.648C130.174 38.128 129.398 37.368 127.846 37.368C127.142 37.368 126.534 37.544 126.022 37.896C125.51 38.232 124.974 38.768 124.414 39.504V47.952H122.446V30.48H124.414V37.104C125.454 36.064 126.654 35.544 128.014 35.544C129.342 35.544 130.358 35.896 131.062 36.6C131.782 37.304 132.142 38.296 132.142 39.576V45.864ZM140.663 48.24C139.591 48.24 138.663 47.96 137.879 47.4C137.111 46.824 136.519 46.056 136.103 45.096C135.703 44.136 135.503 43.096 135.503 41.976C135.503 40.76 135.735 39.672 136.199 38.712C136.663 37.752 137.343 36.992 138.239 36.432C139.151 35.872 140.239 35.592 141.503 35.592C141.871 35.592 142.327 35.616 142.871 35.664C143.431 35.696 143.903 35.744 144.287 35.808H145.895V45.768C145.895 45.992 145.943 46.168 146.039 46.296C146.151 46.408 146.311 46.464 146.519 46.464C146.791 46.464 147.007 46.328 147.167 46.056L148.511 46.944C148.303 47.344 147.999 47.664 147.599 47.904C147.215 48.128 146.799 48.24 146.351 48.24C145.759 48.24 145.247 48.072 144.815 47.736C144.399 47.384 144.175 46.976 144.143 46.512V46.536C143.871 47.064 143.415 47.48 142.775 47.784C142.135 48.088 141.431 48.24 140.663 48.24ZM140.807 46.464C141.447 46.464 142.015 46.296 142.511 45.96C143.007 45.624 143.383 45.2 143.639 44.688C143.783 44.416 143.863 44.184 143.879 43.992C143.911 43.8 143.927 43.584 143.927 43.344V37.536L142.919 37.464C142.119 37.4 141.583 37.368 141.311 37.368C140.095 37.368 139.151 37.8 138.479 38.664C137.807 39.528 137.471 40.624 137.471 41.952C137.471 43.184 137.767 44.248 138.359 45.144C138.951 46.024 139.767 46.464 140.807 46.464ZM150.642 37.008C150.642 35.184 150.914 33.8 151.458 32.856C151.794 32.28 152.234 31.832 152.778 31.512C153.322 31.192 153.938 31.032 154.626 31.032C155.314 31.032 155.954 31.216 156.546 31.584C157.138 31.952 157.522 32.4 157.698 32.928L156.258 34.008C156.082 33.608 155.866 33.32 155.61 33.144C155.354 32.968 155.026 32.88 154.626 32.88C154.21 32.88 153.874 32.976 153.618 33.168C153.362 33.344 153.154 33.616 152.994 33.984C152.802 34.432 152.682 34.888 152.634 35.352C152.586 35.816 152.562 36.344 152.562 36.936V36.984H159.114V45.84C159.114 46.016 159.17 46.168 159.282 46.296C159.394 46.408 159.538 46.464 159.714 46.464C159.97 46.464 160.17 46.32 160.314 46.032L161.73 46.92C161.506 47.336 161.21 47.664 160.842 47.904C160.49 48.128 160.074 48.24 159.594 48.24C158.842 48.24 158.242 48.024 157.794 47.592C157.362 47.144 157.146 46.536 157.146 45.768V38.808H152.562V54.048H150.642V37.008ZM170.88 47.136C170.48 47.504 170.008 47.784 169.464 47.976C168.92 48.152 168.344 48.24 167.736 48.24C166.648 48.24 165.704 47.96 164.904 47.4C164.12 46.824 163.52 46.056 163.104 45.096C162.688 44.136 162.48 43.08 162.48 41.928C162.48 40.696 162.72 39.608 163.2 38.664C163.68 37.704 164.392 36.952 165.336 36.408C166.296 35.864 167.456 35.592 168.816 35.592C169.408 35.592 170.088 35.64 170.856 35.736C171.624 35.832 172.288 35.968 172.848 36.144V54.24H170.88V47.136ZM167.664 46.464C168.464 46.464 169.176 46.208 169.8 45.696C170.44 45.184 170.8 44.528 170.88 43.728V37.632C170.128 37.52 169.472 37.464 168.912 37.464C167.312 37.464 166.168 37.848 165.48 38.616C164.792 39.368 164.448 40.424 164.448 41.784C164.448 43.16 164.728 44.288 165.288 45.168C165.864 46.032 166.656 46.464 167.664 46.464ZM183.811 49.416C182.403 49.416 181.147 49.128 180.043 48.552C178.939 47.992 178.075 47.168 177.451 46.08C176.827 44.992 176.515 43.704 176.515 42.216C176.515 40.728 176.811 39.416 177.403 38.28C178.011 37.128 178.859 36.24 179.947 35.616C181.051 34.976 182.307 34.656 183.715 34.656C185.107 34.656 186.347 34.96 187.435 35.568C188.539 36.16 189.395 36.984 190.003 38.04C190.611 39.08 190.915 40.248 190.915 41.544C190.915 42.904 190.595 43.984 189.955 44.784C189.331 45.584 188.483 45.984 187.411 45.984C186.947 45.984 186.467 45.848 185.971 45.576C185.491 45.304 185.203 44.984 185.107 44.616C184.947 44.952 184.659 45.216 184.243 45.408C183.843 45.584 183.443 45.672 183.043 45.672C182.451 45.672 181.907 45.504 181.411 45.168C180.931 44.832 180.547 44.376 180.259 43.8C179.987 43.208 179.851 42.544 179.851 41.808C179.851 41.04 180.019 40.368 180.355 39.792C180.707 39.2 181.155 38.744 181.699 38.424C182.243 38.104 182.795 37.944 183.355 37.944C183.483 37.944 183.627 37.96 183.787 37.992C183.963 38.008 184.083 38.016 184.147 38.016L184.867 38.064H186.235V43.152C186.379 43.904 186.763 44.28 187.387 44.28C187.883 44.28 188.275 44.032 188.563 43.536C188.851 43.024 188.995 42.368 188.995 41.568C188.995 40.56 188.771 39.672 188.323 38.904C187.891 38.12 187.275 37.512 186.475 37.08C185.675 36.648 184.763 36.432 183.739 36.432C182.651 36.432 181.707 36.68 180.907 37.176C180.107 37.672 179.491 38.36 179.059 39.24C178.643 40.12 178.435 41.12 178.435 42.24C178.435 43.92 178.923 45.24 179.899 46.2C180.875 47.16 182.243 47.64 184.003 47.64C184.867 47.64 185.699 47.536 186.499 47.328C187.299 47.104 187.939 46.816 188.419 46.464L188.971 48.144C188.107 48.624 187.219 48.952 186.307 49.128C185.411 49.32 184.579 49.416 183.811 49.416ZM183.019 43.896C183.563 43.896 183.987 43.584 184.291 42.96C184.323 42.896 184.347 42.832 184.363 42.768C184.379 42.688 184.395 42.632 184.411 42.6V39.72H183.403C182.875 39.72 182.451 39.92 182.131 40.32C181.827 40.704 181.675 41.208 181.675 41.832C181.675 42.408 181.779 42.896 181.987 43.296C182.195 43.696 182.539 43.896 183.019 43.896ZM200.133 54.528C199.445 54.528 198.813 54.36 198.237 54.024C197.661 53.704 197.197 53.256 196.845 52.68C196.509 52.12 196.341 51.504 196.341 50.832C196.341 49.712 196.773 48.768 197.637 48C196.325 47.616 195.309 46.912 194.589 45.888C193.885 44.864 193.533 43.608 193.533 42.12C193.533 40.856 193.789 39.728 194.301 38.736C194.813 37.744 195.517 36.976 196.413 36.432C197.325 35.872 198.365 35.592 199.533 35.592L201.021 35.64L202.389 35.808H204.021V50.304C204.021 51.568 203.661 52.584 202.941 53.352C202.221 54.136 201.285 54.528 200.133 54.528ZM198.741 46.392C199.461 46.392 200.157 46.104 200.829 45.528C201.197 45.224 201.493 44.888 201.717 44.52C201.941 44.152 202.053 43.824 202.053 43.536V37.392L200.181 37.368H199.437C198.701 37.368 198.029 37.568 197.421 37.968C196.829 38.368 196.357 38.92 196.005 39.624C195.669 40.312 195.501 41.088 195.501 41.952C195.501 42.752 195.645 43.496 195.933 44.184C196.237 44.856 196.637 45.392 197.133 45.792C197.629 46.192 198.165 46.392 198.741 46.392ZM200.229 52.752C200.789 52.752 201.229 52.536 201.549 52.104C201.885 51.672 202.053 51.096 202.053 50.376V46.44C202.021 46.488 201.941 46.6 201.813 46.776C201.685 46.936 201.549 47.088 201.405 47.232C201.037 47.584 200.373 48.048 199.413 48.624C198.645 49.088 198.261 49.824 198.261 50.832C198.261 51.344 198.453 51.792 198.837 52.176C199.237 52.56 199.701 52.752 200.229 52.752ZM226.455 46.944C226.231 47.36 225.935 47.688 225.567 47.928C225.215 48.152 224.799 48.264 224.319 48.264C223.567 48.264 222.967 48.048 222.519 47.616C222.087 47.168 221.871 46.56 221.871 45.792V39.6C221.807 38.816 221.615 38.264 221.295 37.944C220.975 37.624 220.495 37.464 219.855 37.464C219.215 37.464 218.639 37.624 218.127 37.944C217.631 38.248 217.191 38.776 216.807 39.528V48.024H214.839V39.912C214.839 39.128 214.671 38.528 214.335 38.112C213.999 37.68 213.503 37.464 212.847 37.464C212.191 37.464 211.583 37.656 211.023 38.04C210.463 38.408 210.055 38.88 209.799 39.456V48.024H207.831V39.6C207.831 38.352 207.495 37.44 206.823 36.864L208.143 35.64C208.399 35.784 208.655 36.016 208.911 36.336C209.167 36.64 209.375 36.992 209.535 37.392C209.983 36.864 210.503 36.448 211.095 36.144C211.687 35.84 212.311 35.688 212.967 35.688C213.671 35.688 214.319 35.864 214.911 36.216C215.503 36.568 215.959 37.04 216.279 37.632C216.743 37.04 217.287 36.568 217.911 36.216C218.535 35.864 219.191 35.688 219.879 35.688C221.079 35.688 222.039 36.016 222.759 36.672C223.479 37.328 223.839 38.288 223.839 39.552V45.864C223.839 46.04 223.895 46.192 224.007 46.32C224.119 46.432 224.263 46.488 224.439 46.488C224.695 46.488 224.895 46.344 225.039 46.056L226.455 46.944ZM232.374 48.24C231.302 48.24 230.374 47.96 229.59 47.4C228.822 46.824 228.23 46.056 227.814 45.096C227.414 44.136 227.214 43.096 227.214 41.976C227.214 40.76 227.446 39.672 227.91 38.712C228.374 37.752 229.054 36.992 229.95 36.432C230.862 35.872 231.95 35.592 233.214 35.592C233.582 35.592 234.038 35.616 234.582 35.664C235.142 35.696 235.614 35.744 235.998 35.808H237.606V45.768C237.606 45.992 237.654 46.168 237.75 46.296C237.862 46.408 238.022 46.464 238.23 46.464C238.502 46.464 238.718 46.328 238.878 46.056L240.222 46.944C240.014 47.344 239.71 47.664 239.31 47.904C238.926 48.128 238.51 48.24 238.062 48.24C237.47 48.24 236.958 48.072 236.526 47.736C236.11 47.384 235.886 46.976 235.854 46.512V46.536C235.582 47.064 235.126 47.48 234.486 47.784C233.846 48.088 233.142 48.24 232.374 48.24ZM232.518 46.464C233.158 46.464 233.726 46.296 234.222 45.96C234.718 45.624 235.094 45.2 235.35 44.688C235.494 44.416 235.574 44.184 235.59 43.992C235.622 43.8 235.638 43.584 235.638 43.344V37.536L234.63 37.464C233.83 37.4 233.294 37.368 233.022 37.368C231.806 37.368 230.862 37.8 230.19 38.664C229.518 39.528 229.182 40.624 229.182 41.952C229.182 43.184 229.478 44.248 230.07 45.144C230.662 46.024 231.478 46.464 232.518 46.464ZM244.176 45.864C244.176 46.04 244.232 46.192 244.344 46.32C244.456 46.432 244.6 46.488 244.776 46.488C245.032 46.488 245.232 46.344 245.376 46.056L246.792 46.944C246.568 47.36 246.272 47.688 245.904 47.928C245.552 48.152 245.136 48.264 244.656 48.264C243.904 48.264 243.304 48.048 242.856 47.616C242.424 47.168 242.208 46.56 242.208 45.792V35.976H244.176V45.864ZM243.168 33.648C242.848 33.648 242.56 33.52 242.304 33.264C242.048 33.008 241.92 32.72 241.92 32.4C241.92 32.064 242.048 31.768 242.304 31.512C242.56 31.256 242.848 31.128 243.168 31.128C243.504 31.128 243.8 31.256 244.056 31.512C244.328 31.768 244.464 32.064 244.464 32.4C244.464 32.72 244.328 33.008 244.056 33.264C243.8 33.52 243.504 33.648 243.168 33.648ZM250.762 45.864C250.762 46.04 250.818 46.192 250.93 46.32C251.042 46.432 251.186 46.488 251.362 46.488C251.618 46.488 251.818 46.344 251.962 46.056L253.378 46.944C253.154 47.36 252.858 47.688 252.49 47.928C252.138 48.152 251.722 48.264 251.242 48.264C250.49 48.264 249.89 48.048 249.442 47.616C249.01 47.168 248.794 46.56 248.794 45.792V30.552H250.762V45.864ZM256.49 48.096C256.17 48.096 255.882 47.968 255.626 47.712C255.37 47.456 255.242 47.168 255.242 46.848C255.242 46.512 255.37 46.216 255.626 45.96C255.882 45.704 256.17 45.576 256.49 45.576C256.826 45.576 257.122 45.704 257.378 45.96C257.65 46.216 257.786 46.512 257.786 46.848C257.786 47.168 257.65 47.456 257.378 47.712C257.122 47.968 256.826 48.096 256.49 48.096ZM265.671 48.144C263.847 48.144 262.423 47.616 261.399 46.56C260.375 45.504 259.863 44.04 259.863 42.168C259.863 40.888 260.095 39.752 260.559 38.76C261.039 37.752 261.703 36.976 262.551 36.432C263.399 35.872 264.375 35.592 265.479 35.592C266.359 35.592 267.151 35.776 267.855 36.144C268.575 36.496 269.119 36.984 269.487 37.608C269.871 38.232 270.031 38.92 269.967 39.672H268.047C268.111 39.016 267.911 38.472 267.447 38.04C266.983 37.592 266.359 37.368 265.575 37.368C264.839 37.368 264.183 37.568 263.607 37.968C263.047 38.368 262.607 38.936 262.287 39.672C261.983 40.408 261.831 41.248 261.831 42.192C261.831 43.536 262.159 44.568 262.815 45.288C263.487 46.008 264.439 46.368 265.671 46.368C266.215 46.368 266.767 46.272 267.327 46.08C267.887 45.888 268.591 45.56 269.439 45.096L270.351 46.584C268.943 47.624 267.383 48.144 265.671 48.144ZM278.118 48.24C276.982 48.24 275.958 47.968 275.046 47.424C274.15 46.88 273.446 46.136 272.934 45.192C272.422 44.232 272.166 43.152 272.166 41.952C272.166 40.752 272.422 39.672 272.934 38.712C273.462 37.736 274.174 36.976 275.07 36.432C275.982 35.872 277.006 35.592 278.142 35.592C279.278 35.592 280.294 35.864 281.19 36.408C282.102 36.952 282.814 37.712 283.326 38.688C283.838 39.648 284.094 40.728 284.094 41.928C284.094 43.128 283.838 44.208 283.326 45.168C282.814 46.128 282.102 46.88 281.19 47.424C280.278 47.968 279.254 48.24 278.118 48.24ZM278.142 46.464C279.342 46.464 280.302 46.048 281.022 45.216C281.758 44.384 282.126 43.288 282.126 41.928C282.126 40.552 281.758 39.448 281.022 38.616C280.302 37.784 279.342 37.368 278.142 37.368C277.358 37.368 276.662 37.56 276.054 37.944C275.446 38.328 274.974 38.864 274.638 39.552C274.302 40.24 274.134 41.032 274.134 41.928C274.134 43.288 274.502 44.384 275.238 45.216C275.974 46.048 276.942 46.464 278.142 46.464ZM305.345 46.944C305.121 47.36 304.825 47.688 304.457 47.928C304.105 48.152 303.689 48.264 303.209 48.264C302.457 48.264 301.857 48.048 301.409 47.616C300.977 47.168 300.761 46.56 300.761 45.792V39.6C300.697 38.816 300.505 38.264 300.185 37.944C299.865 37.624 299.385 37.464 298.745 37.464C298.105 37.464 297.529 37.624 297.017 37.944C296.521 38.248 296.081 38.776 295.697 39.528V48.024H293.729V39.912C293.729 39.128 293.561 38.528 293.225 38.112C292.889 37.68 292.393 37.464 291.737 37.464C291.081 37.464 290.473 37.656 289.913 38.04C289.353 38.408 288.945 38.88 288.689 39.456V48.024H286.721V39.6C286.721 38.352 286.385 37.44 285.713 36.864L287.033 35.64C287.289 35.784 287.545 36.016 287.801 36.336C288.057 36.64 288.265 36.992 288.425 37.392C288.873 36.864 289.393 36.448 289.985 36.144C290.577 35.84 291.201 35.688 291.857 35.688C292.561 35.688 293.209 35.864 293.801 36.216C294.393 36.568 294.849 37.04 295.169 37.632C295.633 37.04 296.177 36.568 296.801 36.216C297.425 35.864 298.081 35.688 298.769 35.688C299.969 35.688 300.929 36.016 301.649 36.672C302.369 37.328 302.729 38.288 302.729 39.552V45.864C302.729 46.04 302.785 46.192 302.897 46.32C303.009 46.432 303.153 46.488 303.329 46.488C303.585 46.488 303.785 46.344 303.929 46.056L305.345 46.944Z" fill="#F8F8F8"/>
</svg>
